<svg xmlns="http://www.w3.org/2000/svg" width="720" height="320" viewBox="0 0 720 320" role="img" aria-labelledby="title desc">
  <title id="title">POKÉDEX CLI</title>
  <desc id="desc">Generated from Krabby sprite: mewtwo, form=regular, shiny=True</desc>
  <defs>
    <linearGradient id="card" x1="0" y1="0" x2="1" y2="1">
      <stop offset="0" stop-color="#153909"/>
      <stop offset="1" stop-color="#0c1908"/>
    </linearGradient>
    <filter id="glow"><feGaussianBlur stdDeviation="7"/></filter>
  </defs>
  <rect width="720" height="320" rx="28" fill="url(#card)"/>
  <circle cx="171" cy="160" r="116" fill="#94f076" opacity=".14" filter="url(#glow)"/>
  <g transform="translate(61.7937 28) scale(0.68254)" shape-rendering="crispEdges"><rect x="70" y="9" width="10" height="9" fill="#000000"/><rect x="80" y="0" width="10" height="9" fill="#000000"/><rect x="80" y="9" width="10" height="9" fill="#c0bdc4"/><rect x="90" y="9" width="10" height="9" fill="#000000"/><rect x="60" y="18" width="10" height="9" fill="#000000"/><rect x="60" y="27" width="10" height="9" fill="#000000"/><rect x="70" y="18" width="10" height="9" fill="#c0bdc4"/><rect x="70" y="27" width="10" height="9" fill="#c0bdc4"/><rect x="80" y="18" width="10" height="9" fill="#c0bdc4"/><rect x="80" y="27" width="10" height="9" fill="#c0bdc4"/><rect x="90" y="18" width="10" height="9" fill="#000000"/><rect x="90" y="27" width="10" height="9" fill="#000000"/><rect x="100" y="27" width="10" height="9" fill="#000000"/><rect x="140" y="27" width="10" height="9" fill="#000000"/><rect x="150" y="18" width="10" height="9" fill="#000000"/><rect x="150" y="27" width="10" height="9" fill="#ebebf0"/><rect x="160" y="18" width="10" height="9" fill="#000000"/><rect x="160" y="27" width="10" height="9" fill="#ebebf0"/><rect x="170" y="27" width="10" height="9" fill="#000000"/><rect x="60" y="36" width="10" height="9" fill="#000000"/><rect x="60" y="45" width="10" height="9" fill="#000000"/><rect x="70" y="36" width="10" height="9" fill="#c0bdc4"/><rect x="70" y="45" width="10" height="9" fill="#c0bdc4"/><rect x="80" y="36" width="10" height="9" fill="#7b837b"/><rect x="80" y="45" width="10" height="9" fill="#ebebf0"/><rect x="90" y="36" width="10" height="9" fill="#7b837b"/><rect x="90" y="45" width="10" height="9" fill="#ebebf0"/><rect x="100" y="36" width="10" height="9" fill="#ebebf0"/><rect x="100" y="45" width="10" height="9" fill="#ebebf0"/><rect x="110" y="36" width="10" height="9" fill="#000000"/><rect x="110" y="45" width="10" height="9" fill="#ebebf0"/><rect x="120" y="36" width="10" height="9" fill="#000000"/><rect x="120" y="45" width="10" height="9" fill="#ebebf0"/><rect x="130" y="36" width="10" height="9" fill="#000000"/><rect x="130" y="45" width="10" height="9" fill="#7b837b"/><rect x="140" y="36" width="10" height="9" fill="#ebebf0"/><rect x="140" y="45" width="10" height="9" fill="#ebebf0"/><rect x="150" y="36" width="10" height="9" fill="#ebebf0"/><rect x="150" y="45" width="10" height="9" fill="#c0bdc4"/><rect x="160" y="36" width="10" height="9" fill="#c0bdc4"/><rect x="160" y="45" width="10" height="9" fill="#c0bdc4"/><rect x="170" y="36" width="10" height="9" fill="#000000"/><rect x="170" y="45" width="10" height="9" fill="#000000"/><rect x="260" y="45" width="10" height="9" fill="#000000"/><rect x="270" y="45" width="10" height="9" fill="#000000"/><rect x="280" y="36" width="10" height="9" fill="#000000"/><rect x="280" y="45" width="10" height="9" fill="#94f076"/><rect x="290" y="36" width="10" height="9" fill="#000000"/><rect x="290" y="45" width="10" height="9" fill="#94f076"/><rect x="300" y="36" width="10" height="9" fill="#000000"/><rect x="300" y="45" width="10" height="9" fill="#5ab838"/><rect x="310" y="45" width="10" height="9" fill="#000000"/><rect x="40" y="63" width="10" height="9" fill="#000000"/><rect x="50" y="54" width="10" height="9" fill="#000000"/><rect x="50" y="63" width="10" height="9" fill="#ebebf0"/><rect x="60" y="54" width="10" height="9" fill="#ebebf0"/><rect x="60" y="63" width="10" height="9" fill="#ebebf0"/><rect x="70" y="54" width="10" height="9" fill="#ebebf0"/><rect x="70" y="63" width="10" height="9" fill="#ebebf0"/><rect x="80" y="54" width="10" height="9" fill="#ebebf0"/><rect x="80" y="63" width="10" height="9" fill="#ebebf0"/><rect x="90" y="54" width="10" height="9" fill="#ebebf0"/><rect x="90" y="63" width="10" height="9" fill="#ebebf0"/><rect x="100" y="54" width="10" height="9" fill="#ebebf0"/><rect x="100" y="63" width="10" height="9" fill="#ebebf0"/><rect x="110" y="54" width="10" height="9" fill="#ebebf0"/><rect x="110" y="63" width="10" height="9" fill="#ebebf0"/><rect x="120" y="54" width="10" height="9" fill="#7b837b"/><rect x="120" y="63" width="10" height="9" fill="#ebebf0"/><rect x="130" y="54" width="10" height="9" fill="#ebebf0"/><rect x="130" y="63" width="10" height="9" fill="#ebebf0"/><rect x="140" y="54" width="10" height="9" fill="#c0bdc4"/><rect x="140" y="63" width="10" height="9" fill="#c0bdc4"/><rect x="150" y="54" width="10" height="9" fill="#c0bdc4"/><rect x="150" y="63" width="10" height="9" fill="#c0bdc4"/><rect x="160" y="54" width="10" height="9" fill="#000000"/><rect x="160" y="63" width="10" height="9" fill="#000000"/><rect x="240" y="63" width="10" height="9" fill="#000000"/><rect x="250" y="54" width="10" height="9" fill="#000000"/><rect x="250" y="63" width="10" height="9" fill="#94f076"/><rect x="260" y="54" width="10" height="9" fill="#94f076"/><rect x="260" y="63" width="10" height="9" fill="#94f076"/><rect x="270" y="54" width="10" height="9" fill="#94f076"/><rect x="270" y="63" width="10" height="9" fill="#94f076"/><rect x="280" y="54" width="10" height="9" fill="#94f076"/><rect x="280" y="63" width="10" height="9" fill="#94f076"/><rect x="290" y="54" width="10" height="9" fill="#94f076"/><rect x="290" y="63" width="10" height="9" fill="#5ab838"/><rect x="300" y="54" width="10" height="9" fill="#94f076"/><rect x="300" y="63" width="10" height="9" fill="#000000"/><rect x="310" y="54" width="10" height="9" fill="#000000"/><rect x="30" y="81" width="10" height="9" fill="#000000"/><rect x="40" y="72" width="10" height="9" fill="#000000"/><rect x="40" y="81" width="10" height="9" fill="#ebebf0"/><rect x="50" y="72" width="10" height="9" fill="#ebebf0"/><rect x="50" y="81" width="10" height="9" fill="#ebebf0"/><rect x="60" y="72" width="10" height="9" fill="#ebebf0"/><rect x="60" y="81" width="10" height="9" fill="#ebebf0"/><rect x="70" y="72" width="10" height="9" fill="#ebebf0"/><rect x="70" y="81" width="10" height="9" fill="#ebebf0"/><rect x="80" y="72" width="10" height="9" fill="#ebebf0"/><rect x="80" y="81" width="10" height="9" fill="#ebebf0"/><rect x="90" y="72" width="10" height="9" fill="#ebebf0"/><rect x="90" y="81" width="10" height="9" fill="#ebebf0"/><rect x="100" y="72" width="10" height="9" fill="#ebebf0"/><rect x="100" y="81" width="10" height="9" fill="#ebebf0"/><rect x="110" y="72" width="10" height="9" fill="#ebebf0"/><rect x="110" y="81" width="10" height="9" fill="#ebebf0"/><rect x="120" y="72" width="10" height="9" fill="#ebebf0"/><rect x="120" y="81" width="10" height="9" fill="#ebebf0"/><rect x="130" y="72" width="10" height="9" fill="#ebebf0"/><rect x="130" y="81" width="10" height="9" fill="#ebebf0"/><rect x="140" y="72" width="10" height="9" fill="#ebebf0"/><rect x="140" y="81" width="10" height="9" fill="#ebebf0"/><rect x="150" y="72" width="10" height="9" fill="#c0bdc4"/><rect x="150" y="81" width="10" height="9" fill="#c0bdc4"/><rect x="160" y="72" width="10" height="9" fill="#000000"/><rect x="160" y="81" width="10" height="9" fill="#c0bdc4"/><rect x="170" y="81" width="10" height="9" fill="#000000"/><rect x="230" y="72" width="10" height="9" fill="#000000"/><rect x="230" y="81" width="10" height="9" fill="#000000"/><rect x="240" y="72" width="10" height="9" fill="#5ab838"/><rect x="240" y="81" width="10" height="9" fill="#5ab838"/><rect x="250" y="72" width="10" height="9" fill="#94f076"/><rect x="250" y="81" width="10" height="9" fill="#5ab838"/><rect x="260" y="72" width="10" height="9" fill="#94f076"/><rect x="260" y="81" width="10" height="9" fill="#000000"/><rect x="270" y="72" width="10" height="9" fill="#000000"/><rect x="280" y="72" width="10" height="9" fill="#000000"/><rect x="290" y="72" width="10" height="9" fill="#000000"/><rect x="30" y="90" width="10" height="9" fill="#000000"/><rect x="30" y="99" width="10" height="9" fill="#000000"/><rect x="40" y="90" width="10" height="9" fill="#ebebf0"/><rect x="40" y="99" width="10" height="9" fill="#ebebf0"/><rect x="50" y="90" width="10" height="9" fill="#ebebf0"/><rect x="50" y="99" width="10" height="9" fill="#c0bdc4"/><rect x="60" y="90" width="10" height="9" fill="#ebebf0"/><rect x="60" y="99" width="10" height="9" fill="#ebebf0"/><rect x="70" y="90" width="10" height="9" fill="#ebebf0"/><rect x="70" y="99" width="10" height="9" fill="#c0bdc4"/><rect x="80" y="90" width="10" height="9" fill="#ebebf0"/><rect x="80" y="99" width="10" height="9" fill="#ebebf0"/><rect x="90" y="90" width="10" height="9" fill="#ebebf0"/><rect x="90" y="99" width="10" height="9" fill="#ebebf0"/><rect x="100" y="90" width="10" height="9" fill="#ebebf0"/><rect x="100" y="99" width="10" height="9" fill="#ebebf0"/><rect x="110" y="90" width="10" height="9" fill="#ebebf0"/><rect x="110" y="99" width="10" height="9" fill="#ebebf0"/><rect x="120" y="90" width="10" height="9" fill="#ebebf0"/><rect x="120" y="99" width="10" height="9" fill="#525a52"/><rect x="130" y="90" width="10" height="9" fill="#ebebf0"/><rect x="130" y="99" width="10" height="9" fill="#c0bdc4"/><rect x="140" y="90" width="10" height="9" fill="#c0bdc4"/><rect x="140" y="99" width="10" height="9" fill="#c0bdc4"/><rect x="150" y="90" width="10" height="9" fill="#c0bdc4"/><rect x="150" y="99" width="10" height="9" fill="#c0bdc4"/><rect x="160" y="90" width="10" height="9" fill="#c0bdc4"/><rect x="160" y="99" width="10" height="9" fill="#c0bdc4"/><rect x="170" y="90" width="10" height="9" fill="#000000"/><rect x="170" y="99" width="10" height="9" fill="#000000"/><rect x="220" y="90" width="10" height="9" fill="#000000"/><rect x="220" y="99" width="10" height="9" fill="#000000"/><rect x="230" y="90" width="10" height="9" fill="#5ab838"/><rect x="230" y="99" width="10" height="9" fill="#5ab838"/><rect x="240" y="90" width="10" height="9" fill="#5ab838"/><rect x="240" y="99" width="10" height="9" fill="#000000"/><rect x="250" y="90" width="10" height="9" fill="#000000"/><rect x="40" y="108" width="10" height="9" fill="#000000"/><rect x="50" y="108" width="10" height="9" fill="#c0bdc4"/><rect x="50" y="117" width="10" height="9" fill="#000000"/><rect x="60" y="108" width="10" height="9" fill="#ebebf0"/><rect x="60" y="117" width="10" height="9" fill="#ebebf0"/><rect x="70" y="108" width="10" height="9" fill="#c0bdc4"/><rect x="70" y="117" width="10" height="9" fill="#ebebf0"/><rect x="80" y="108" width="10" height="9" fill="#ebebf0"/><rect x="80" y="117" width="10" height="9" fill="#969196"/><rect x="90" y="108" width="10" height="9" fill="#ebebf0"/><rect x="90" y="117" width="10" height="9" fill="#525a52"/><rect x="100" y="108" width="10" height="9" fill="#414141"/><rect x="100" y="117" width="10" height="9" fill="#000000"/><rect x="110" y="108" width="10" height="9" fill="#525a52"/><rect x="110" y="117" width="10" height="9" fill="#ffffff"/><rect x="120" y="108" width="10" height="9" fill="#ffffff"/><rect x="120" y="117" width="10" height="9" fill="#ffffff"/><rect x="130" y="108" width="10" height="9" fill="#c0bdc4"/><rect x="130" y="117" width="10" height="9" fill="#c0bdc4"/><rect x="140" y="108" width="10" height="9" fill="#c0bdc4"/><rect x="140" y="117" width="10" height="9" fill="#c0bdc4"/><rect x="150" y="108" width="10" height="9" fill="#c0bdc4"/><rect x="150" y="117" width="10" height="9" fill="#c0bdc4"/><rect x="160" y="108" width="10" height="9" fill="#c0bdc4"/><rect x="160" y="117" width="10" height="9" fill="#000000"/><rect x="170" y="108" width="10" height="9" fill="#000000"/><rect x="220" y="108" width="10" height="9" fill="#000000"/><rect x="230" y="108" width="10" height="9" fill="#5ab838"/><rect x="230" y="117" width="10" height="9" fill="#000000"/><rect x="240" y="108" width="10" height="9" fill="#414141"/><rect x="240" y="117" width="10" height="9" fill="#5ab838"/><rect x="250" y="108" width="10" height="9" fill="#000000"/><rect x="250" y="117" width="10" height="9" fill="#000000"/><rect x="40" y="126" width="10" height="9" fill="#000000"/><rect x="40" y="135" width="10" height="9" fill="#000000"/><rect x="50" y="126" width="10" height="9" fill="#969196"/><rect x="50" y="135" width="10" height="9" fill="#ebebf0"/><rect x="60" y="126" width="10" height="9" fill="#ebebf0"/><rect x="60" y="135" width="10" height="9" fill="#ebebf0"/><rect x="70" y="126" width="10" height="9" fill="#ebebf0"/><rect x="70" y="135" width="10" height="9" fill="#ebebf0"/><rect x="80" y="126" width="10" height="9" fill="#ebebf0"/><rect x="80" y="135" width="10" height="9" fill="#c0bdc4"/><rect x="90" y="126" width="10" height="9" fill="#000000"/><rect x="90" y="135" width="10" height="9" fill="#c0bdc4"/><rect x="100" y="126" width="10" height="9" fill="#5ab838"/><rect x="100" y="135" width="10" height="9" fill="#c0bdc4"/><rect x="110" y="126" width="10" height="9" fill="#ffffff"/><rect x="110" y="135" width="10" height="9" fill="#c0bdc4"/><rect x="120" y="126" width="10" height="9" fill="#c0bdc4"/><rect x="120" y="135" width="10" height="9" fill="#c0bdc4"/><rect x="130" y="126" width="10" height="9" fill="#c0bdc4"/><rect x="130" y="135" width="10" height="9" fill="#000000"/><rect x="140" y="126" width="10" height="9" fill="#c0bdc4"/><rect x="140" y="135" width="10" height="9" fill="#000000"/><rect x="150" y="126" width="10" height="9" fill="#414141"/><rect x="150" y="135" width="10" height="9" fill="#969196"/><rect x="160" y="126" width="10" height="9" fill="#969196"/><rect x="160" y="135" width="10" height="9" fill="#969196"/><rect x="170" y="126" width="10" height="9" fill="#000000"/><rect x="170" y="135" width="10" height="9" fill="#525a52"/><rect x="180" y="135" width="10" height="9" fill="#000000"/><rect x="230" y="126" width="10" height="9" fill="#000000"/><rect x="240" y="126" width="10" height="9" fill="#5ab838"/><rect x="240" y="135" width="10" height="9" fill="#000000"/><rect x="250" y="126" width="10" height="9" fill="#5ab838"/><rect x="250" y="135" width="10" height="9" fill="#94f076"/><rect x="260" y="126" width="10" height="9" fill="#000000"/><rect x="260" y="135" width="10" height="9" fill="#94f076"/><rect x="270" y="135" width="10" height="9" fill="#000000"/><rect x="50" y="144" width="10" height="9" fill="#000000"/><rect x="60" y="144" width="10" height="9" fill="#c0bdc4"/><rect x="60" y="153" width="10" height="9" fill="#000000"/><rect x="70" y="144" width="10" height="9" fill="#969196"/><rect x="70" y="153" width="10" height="9" fill="#414141"/><rect x="80" y="144" width="10" height="9" fill="#c0bdc4"/><rect x="80" y="153" width="10" height="9" fill="#414141"/><rect x="90" y="144" width="10" height="9" fill="#c0bdc4"/><rect x="90" y="153" width="10" height="9" fill="#414141"/><rect x="100" y="144" width="10" height="9" fill="#414141"/><rect x="100" y="153" width="10" height="9" fill="#c0bdc4"/><rect x="110" y="144" width="10" height="9" fill="#414141"/><rect x="110" y="153" width="10" height="9" fill="#969196"/><rect x="120" y="144" width="10" height="9" fill="#000000"/><rect x="120" y="153" width="10" height="9" fill="#c0bdc4"/><rect x="130" y="153" width="10" height="9" fill="#000000"/><rect x="140" y="153" width="10" height="9" fill="#000000"/><rect x="150" y="144" width="10" height="9" fill="#000000"/><rect x="150" y="153" width="10" height="9" fill="#969196"/><rect x="160" y="144" width="10" height="9" fill="#969196"/><rect x="160" y="153" width="10" height="9" fill="#969196"/><rect x="170" y="144" width="10" height="9" fill="#969196"/><rect x="170" y="153" width="10" height="9" fill="#525a52"/><rect x="180" y="144" width="10" height="9" fill="#000000"/><rect x="180" y="153" width="10" height="9" fill="#000000"/><rect x="250" y="144" width="10" height="9" fill="#000000"/><rect x="250" y="153" width="10" height="9" fill="#000000"/><rect x="260" y="144" width="10" height="9" fill="#94f076"/><rect x="260" y="153" width="10" height="9" fill="#94f076"/><rect x="270" y="144" width="10" height="9" fill="#94f076"/><rect x="270" y="153" width="10" height="9" fill="#94f076"/><rect x="280" y="144" width="10" height="9" fill="#000000"/><rect x="280" y="153" width="10" height="9" fill="#94f076"/><rect x="290" y="153" width="10" height="9" fill="#000000"/><rect x="60" y="171" width="10" height="9" fill="#000400"/><rect x="70" y="162" width="10" height="9" fill="#000000"/><rect x="70" y="171" width="10" height="9" fill="#969196"/><rect x="80" y="162" width="10" height="9" fill="#c0bdc4"/><rect x="80" y="171" width="10" height="9" fill="#c0bdc4"/><rect x="90" y="162" width="10" height="9" fill="#969196"/><rect x="90" y="171" width="10" height="9" fill="#969196"/><rect x="100" y="162" width="10" height="9" fill="#c0bdc4"/><rect x="100" y="171" width="10" height="9" fill="#ebebf0"/><rect x="110" y="162" width="10" height="9" fill="#c0bdc4"/><rect x="110" y="171" width="10" height="9" fill="#ebebf0"/><rect x="120" y="162" width="10" height="9" fill="#ebebf0"/><rect x="120" y="171" width="10" height="9" fill="#ebebf0"/><rect x="130" y="162" width="10" height="9" fill="#ebebf0"/><rect x="130" y="171" width="10" height="9" fill="#525a52"/><rect x="140" y="162" width="10" height="9" fill="#525a52"/><rect x="140" y="171" width="10" height="9" fill="#c0bdc4"/><rect x="150" y="162" width="10" height="9" fill="#414141"/><rect x="150" y="171" width="10" height="9" fill="#969196"/><rect x="160" y="162" width="10" height="9" fill="#969196"/><rect x="160" y="171" width="10" height="9" fill="#000000"/><rect x="170" y="162" width="10" height="9" fill="#000000"/><rect x="260" y="162" width="10" height="9" fill="#000000"/><rect x="260" y="171" width="10" height="9" fill="#000000"/><rect x="270" y="162" width="10" height="9" fill="#94f076"/><rect x="270" y="171" width="10" height="9" fill="#94f076"/><rect x="280" y="162" width="10" height="9" fill="#94f076"/><rect x="280" y="171" width="10" height="9" fill="#94f076"/><rect x="290" y="162" width="10" height="9" fill="#000000"/><rect x="290" y="171" width="10" height="9" fill="#94f076"/><rect x="300" y="171" width="10" height="9" fill="#000000"/><rect x="50" y="189" width="10" height="9" fill="#000000"/><rect x="60" y="180" width="10" height="9" fill="#000000"/><rect x="60" y="189" width="10" height="9" fill="#c0bdc4"/><rect x="70" y="180" width="10" height="9" fill="#c0bdc4"/><rect x="70" y="189" width="10" height="9" fill="#c0bdc4"/><rect x="80" y="180" width="10" height="9" fill="#414141"/><rect x="80" y="189" width="10" height="9" fill="#414141"/><rect x="90" y="180" width="10" height="9" fill="#969196"/><rect x="90" y="189" width="10" height="9" fill="#ebebf0"/><rect x="100" y="180" width="10" height="9" fill="#969196"/><rect x="100" y="189" width="10" height="9" fill="#ebebf0"/><rect x="110" y="180" width="10" height="9" fill="#ebebf0"/><rect x="110" y="189" width="10" height="9" fill="#969196"/><rect x="120" y="180" width="10" height="9" fill="#ebebf0"/><rect x="120" y="189" width="10" height="9" fill="#969196"/><rect x="130" y="180" width="10" height="9" fill="#969196"/><rect x="130" y="189" width="10" height="9" fill="#c0bdc4"/><rect x="140" y="180" width="10" height="9" fill="#525a52"/><rect x="140" y="189" width="10" height="9" fill="#000000"/><rect x="150" y="180" width="10" height="9" fill="#c0bdc4"/><rect x="150" y="189" width="10" height="9" fill="#000000"/><rect x="160" y="180" width="10" height="9" fill="#c0bdc4"/><rect x="160" y="189" width="10" height="9" fill="#c0bdc4"/><rect x="170" y="180" width="10" height="9" fill="#000000"/><rect x="170" y="189" width="10" height="9" fill="#c0bdc4"/><rect x="180" y="189" width="10" height="9" fill="#000000"/><rect x="250" y="189" width="10" height="9" fill="#000000"/><rect x="260" y="180" width="10" height="9" fill="#000000"/><rect x="260" y="189" width="10" height="9" fill="#5ab838"/><rect x="270" y="180" width="10" height="9" fill="#5ab838"/><rect x="270" y="189" width="10" height="9" fill="#94f076"/><rect x="280" y="180" width="10" height="9" fill="#94f076"/><rect x="280" y="189" width="10" height="9" fill="#5ab838"/><rect x="290" y="180" width="10" height="9" fill="#5ab838"/><rect x="290" y="189" width="10" height="9" fill="#94f076"/><rect x="300" y="180" width="10" height="9" fill="#000000"/><rect x="300" y="189" width="10" height="9" fill="#000000"/><rect x="20" y="207" width="10" height="9" fill="#000000"/><rect x="30" y="198" width="10" height="9" fill="#000000"/><rect x="30" y="207" width="10" height="9" fill="#969196"/><rect x="40" y="198" width="10" height="9" fill="#000000"/><rect x="40" y="207" width="10" height="9" fill="#c0bdc4"/><rect x="50" y="198" width="10" height="9" fill="#c0bdc4"/><rect x="50" y="207" width="10" height="9" fill="#414141"/><rect x="60" y="198" width="10" height="9" fill="#c0bdc4"/><rect x="60" y="207" width="10" height="9" fill="#414141"/><rect x="70" y="198" width="10" height="9" fill="#414141"/><rect x="70" y="207" width="10" height="9" fill="#c0bdc4"/><rect x="80" y="198" width="10" height="9" fill="#c0bdc4"/><rect x="80" y="207" width="10" height="9" fill="#5ab838"/><rect x="90" y="198" width="10" height="9" fill="#ebebf0"/><rect x="90" y="207" width="10" height="9" fill="#5ab838"/><rect x="100" y="198" width="10" height="9" fill="#ebebf0"/><rect x="100" y="207" width="10" height="9" fill="#5ab838"/><rect x="110" y="198" width="10" height="9" fill="#ebebf0"/><rect x="110" y="207" width="10" height="9" fill="#ebebf0"/><rect x="120" y="198" width="10" height="9" fill="#ebebf0"/><rect x="120" y="207" width="10" height="9" fill="#ebebf0"/><rect x="130" y="198" width="10" height="9" fill="#000000"/><rect x="130" y="207" width="10" height="9" fill="#000000"/><rect x="160" y="198" width="10" height="9" fill="#000000"/><rect x="170" y="198" width="10" height="9" fill="#c0bdc4"/><rect x="170" y="207" width="10" height="9" fill="#000000"/><rect x="180" y="198" width="10" height="9" fill="#ebebf0"/><rect x="180" y="207" width="10" height="9" fill="#ebebf0"/><rect x="190" y="198" width="10" height="9" fill="#000000"/><rect x="190" y="207" width="10" height="9" fill="#414141"/><rect x="200" y="207" width="10" height="9" fill="#000000"/><rect x="210" y="207" width="10" height="9" fill="#000000"/><rect x="220" y="207" width="10" height="9" fill="#000000"/><rect x="230" y="198" width="10" height="9" fill="#000000"/><rect x="230" y="207" width="10" height="9" fill="#5ab838"/><rect x="240" y="198" width="10" height="9" fill="#000000"/><rect x="240" y="207" width="10" height="9" fill="#5ab838"/><rect x="250" y="198" width="10" height="9" fill="#5ab838"/><rect x="250" y="207" width="10" height="9" fill="#5ab838"/><rect x="260" y="198" width="10" height="9" fill="#5ab838"/><rect x="260" y="207" width="10" height="9" fill="#5ab838"/><rect x="270" y="198" width="10" height="9" fill="#5ab838"/><rect x="270" y="207" width="10" height="9" fill="#5ab838"/><rect x="280" y="198" width="10" height="9" fill="#94f076"/><rect x="280" y="207" width="10" height="9" fill="#5ab838"/><rect x="290" y="198" width="10" height="9" fill="#000000"/><rect x="290" y="207" width="10" height="9" fill="#000000"/><rect x="0" y="225" width="10" height="9" fill="#000000"/><rect x="10" y="216" width="10" height="9" fill="#000000"/><rect x="10" y="225" width="10" height="9" fill="#c0bdc4"/><rect x="20" y="216" width="10" height="9" fill="#c0bdc4"/><rect x="20" y="225" width="10" height="9" fill="#c0bdc4"/><rect x="30" y="216" width="10" height="9" fill="#c0bdc4"/><rect x="30" y="225" width="10" height="9" fill="#414141"/><rect x="40" y="216" width="10" height="9" fill="#414141"/><rect x="40" y="225" width="10" height="9" fill="#ebebf0"/><rect x="50" y="216" width="10" height="9" fill="#ebebf0"/><rect x="50" y="225" width="10" height="9" fill="#ebebf0"/><rect x="60" y="216" width="10" height="9" fill="#ebebf0"/><rect x="60" y="225" width="10" height="9" fill="#414141"/><rect x="70" y="216" width="10" height="9" fill="#414141"/><rect x="70" y="225" width="10" height="9" fill="#94f076"/><rect x="80" y="216" width="10" height="9" fill="#94f076"/><rect x="80" y="225" width="10" height="9" fill="#94f076"/><rect x="90" y="216" width="10" height="9" fill="#94f076"/><rect x="90" y="225" width="10" height="9" fill="#94f076"/><rect x="100" y="216" width="10" height="9" fill="#94f076"/><rect x="100" y="225" width="10" height="9" fill="#94f076"/><rect x="110" y="216" width="10" height="9" fill="#5ab838"/><rect x="110" y="225" width="10" height="9" fill="#94f076"/><rect x="120" y="216" width="10" height="9" fill="#ebebf0"/><rect x="120" y="225" width="10" height="9" fill="#5ab838"/><rect x="130" y="216" width="10" height="9" fill="#ebebf0"/><rect x="130" y="225" width="10" height="9" fill="#969196"/><rect x="140" y="216" width="10" height="9" fill="#000000"/><rect x="140" y="225" width="10" height="9" fill="#ebebf0"/><rect x="150" y="216" width="10" height="9" fill="#000000"/><rect x="150" y="225" width="10" height="9" fill="#ebebf0"/><rect x="160" y="225" width="10" height="9" fill="#000000"/><rect x="170" y="216" width="10" height="9" fill="#000000"/><rect x="170" y="225" width="10" height="9" fill="#414141"/><rect x="180" y="216" width="10" height="9" fill="#ebebf0"/><rect x="180" y="225" width="10" height="9" fill="#ebebf0"/><rect x="190" y="216" width="10" height="9" fill="#ebebf0"/><rect x="190" y="225" width="10" height="9" fill="#ebebf0"/><rect x="200" y="216" width="10" height="9" fill="#414141"/><rect x="200" y="225" width="10" height="9" fill="#414141"/><rect x="210" y="216" width="10" height="9" fill="#5ab838"/><rect x="210" y="225" width="10" height="9" fill="#5ab838"/><rect x="220" y="216" width="10" height="9" fill="#5ab838"/><rect x="220" y="225" width="10" height="9" fill="#5ab838"/><rect x="230" y="216" width="10" height="9" fill="#5ab838"/><rect x="230" y="225" width="10" height="9" fill="#5ab838"/><rect x="240" y="216" width="10" height="9" fill="#5ab838"/><rect x="240" y="225" width="10" height="9" fill="#5ab838"/><rect x="250" y="216" width="10" height="9" fill="#5ab838"/><rect x="250" y="225" width="10" height="9" fill="#5ab838"/><rect x="260" y="216" width="10" height="9" fill="#5ab838"/><rect x="260" y="225" width="10" height="9" fill="#5ab838"/><rect x="270" y="216" width="10" height="9" fill="#5ab838"/><rect x="270" y="225" width="10" height="9" fill="#000000"/><rect x="280" y="216" width="10" height="9" fill="#000000"/><rect x="0" y="234" width="10" height="9" fill="#000000"/><rect x="10" y="234" width="10" height="9" fill="#c0bdc4"/><rect x="10" y="243" width="10" height="9" fill="#000000"/><rect x="20" y="234" width="10" height="9" fill="#414141"/><rect x="20" y="243" width="10" height="9" fill="#414141"/><rect x="30" y="234" width="10" height="9" fill="#ebebf0"/><rect x="30" y="243" width="10" height="9" fill="#ebebf0"/><rect x="40" y="234" width="10" height="9" fill="#ebebf0"/><rect x="40" y="243" width="10" height="9" fill="#ebebf0"/><rect x="50" y="234" width="10" height="9" fill="#ebebf0"/><rect x="50" y="243" width="10" height="9" fill="#ebebf0"/><rect x="60" y="234" width="10" height="9" fill="#414141"/><rect x="60" y="243" width="10" height="9" fill="#414141"/><rect x="70" y="234" width="10" height="9" fill="#94f076"/><rect x="70" y="243" width="10" height="9" fill="#94f076"/><rect x="80" y="234" width="10" height="9" fill="#94f076"/><rect x="80" y="243" width="10" height="9" fill="#94f076"/><rect x="90" y="234" width="10" height="9" fill="#94f076"/><rect x="90" y="243" width="10" height="9" fill="#94f076"/><rect x="100" y="234" width="10" height="9" fill="#94f076"/><rect x="100" y="243" width="10" height="9" fill="#94f076"/><rect x="110" y="234" width="10" height="9" fill="#94f076"/><rect x="110" y="243" width="10" height="9" fill="#414141"/><rect x="120" y="234" width="10" height="9" fill="#414141"/><rect x="120" y="243" width="10" height="9" fill="#c0bdc4"/><rect x="130" y="234" width="10" height="9" fill="#ebebf0"/><rect x="130" y="243" width="10" height="9" fill="#ebebf0"/><rect x="140" y="234" width="10" height="9" fill="#ebebf0"/><rect x="140" y="243" width="10" height="9" fill="#ebebf0"/><rect x="150" y="234" width="10" height="9" fill="#ebebf0"/><rect x="150" y="243" width="10" height="9" fill="#ebebf0"/><rect x="160" y="234" width="10" height="9" fill="#ebebf0"/><rect x="160" y="243" width="10" height="9" fill="#ebebf0"/><rect x="170" y="234" width="10" height="9" fill="#414141"/><rect x="170" y="243" width="10" height="9" fill="#ebebf0"/><rect x="180" y="234" width="10" height="9" fill="#ebebf0"/><rect x="180" y="243" width="10" height="9" fill="#414141"/><rect x="190" y="234" width="10" height="9" fill="#ebebf0"/><rect x="190" y="243" width="10" height="9" fill="#ebebf0"/><rect x="200" y="234" width="10" height="9" fill="#ebebf0"/><rect x="200" y="243" width="10" height="9" fill="#ebebf0"/><rect x="210" y="234" width="10" height="9" fill="#414141"/><rect x="210" y="243" width="10" height="9" fill="#414141"/><rect x="220" y="234" width="10" height="9" fill="#5ab838"/><rect x="220" y="243" width="10" height="9" fill="#5ab838"/><rect x="230" y="234" width="10" height="9" fill="#5ab838"/><rect x="230" y="243" width="10" height="9" fill="#000000"/><rect x="240" y="234" width="10" height="9" fill="#5ab838"/><rect x="240" y="243" width="10" height="9" fill="#000000"/><rect x="250" y="234" width="10" height="9" fill="#000000"/><rect x="260" y="234" width="10" height="9" fill="#000000"/><rect x="20" y="252" width="10" height="9" fill="#000000"/><rect x="30" y="252" width="10" height="9" fill="#ebebf0"/><rect x="30" y="261" width="10" height="9" fill="#000000"/><rect x="40" y="252" width="10" height="9" fill="#ebebf0"/><rect x="40" y="261" width="10" height="9" fill="#ebebf0"/><rect x="50" y="252" width="10" height="9" fill="#ebebf0"/><rect x="50" y="261" width="10" height="9" fill="#c0bdc4"/><rect x="60" y="252" width="10" height="9" fill="#414141"/><rect x="60" y="261" width="10" height="9" fill="#c0bdc4"/><rect x="70" y="252" width="10" height="9" fill="#5ab838"/><rect x="70" y="261" width="10" height="9" fill="#414141"/><rect x="80" y="252" width="10" height="9" fill="#94f076"/><rect x="80" y="261" width="10" height="9" fill="#5ab838"/><rect x="90" y="252" width="10" height="9" fill="#94f076"/><rect x="90" y="261" width="10" height="9" fill="#5ab838"/><rect x="100" y="252" width="10" height="9" fill="#5ab838"/><rect x="100" y="261" width="10" height="9" fill="#5ab838"/><rect x="110" y="252" width="10" height="9" fill="#414141"/><rect x="110" y="261" width="10" height="9" fill="#414141"/><rect x="120" y="252" width="10" height="9" fill="#ebebf0"/><rect x="120" y="261" width="10" height="9" fill="#ebebf0"/><rect x="130" y="252" width="10" height="9" fill="#ebebf0"/><rect x="130" y="261" width="10" height="9" fill="#ebebf0"/><rect x="140" y="252" width="10" height="9" fill="#ebebf0"/><rect x="140" y="261" width="10" height="9" fill="#ebebf0"/><rect x="150" y="252" width="10" height="9" fill="#ebebf0"/><rect x="150" y="261" width="10" height="9" fill="#ebebf0"/><rect x="160" y="252" width="10" height="9" fill="#ebebf0"/><rect x="160" y="261" width="10" height="9" fill="#ebebf0"/><rect x="170" y="252" width="10" height="9" fill="#ebebf0"/><rect x="170" y="261" width="10" height="9" fill="#414141"/><rect x="180" y="252" width="10" height="9" fill="#414141"/><rect x="180" y="261" width="10" height="9" fill="#ebebf0"/><rect x="190" y="252" width="10" height="9" fill="#ebebf0"/><rect x="190" y="261" width="10" height="9" fill="#969196"/><rect x="200" y="252" width="10" height="9" fill="#ebebf0"/><rect x="200" y="261" width="10" height="9" fill="#ebebf0"/><rect x="210" y="252" width="10" height="9" fill="#c0bdc4"/><rect x="210" y="261" width="10" height="9" fill="#969196"/><rect x="220" y="252" width="10" height="9" fill="#000000"/><rect x="220" y="261" width="10" height="9" fill="#000000"/><rect x="40" y="270" width="10" height="9" fill="#000000"/><rect x="50" y="270" width="10" height="9" fill="#000000"/><rect x="60" y="270" width="10" height="9" fill="#c0bdc4"/><rect x="60" y="279" width="10" height="9" fill="#000000"/><rect x="70" y="270" width="10" height="9" fill="#c0bdc4"/><rect x="70" y="279" width="10" height="9" fill="#c0bdc4"/><rect x="80" y="270" width="10" height="9" fill="#414141"/><rect x="80" y="279" width="10" height="9" fill="#c0bdc4"/><rect x="90" y="270" width="10" height="9" fill="#5ab838"/><rect x="90" y="279" width="10" height="9" fill="#414141"/><rect x="100" y="270" width="10" height="9" fill="#5ab838"/><rect x="100" y="279" width="10" height="9" fill="#5ab838"/><rect x="110" y="270" width="10" height="9" fill="#414141"/><rect x="110" y="279" width="10" height="9" fill="#5ab838"/><rect x="120" y="270" width="10" height="9" fill="#ebebf0"/><rect x="120" y="279" width="10" height="9" fill="#414141"/><rect x="130" y="270" width="10" height="9" fill="#ebebf0"/><rect x="130" y="279" width="10" height="9" fill="#ebebf0"/><rect x="140" y="270" width="10" height="9" fill="#ebebf0"/><rect x="140" y="279" width="10" height="9" fill="#ebebf0"/><rect x="150" y="270" width="10" height="9" fill="#ebebf0"/><rect x="150" y="279" width="10" height="9" fill="#c0bdc4"/><rect x="160" y="270" width="10" height="9" fill="#c0bdc4"/><rect x="160" y="279" width="10" height="9" fill="#c0bdc4"/><rect x="170" y="270" width="10" height="9" fill="#414141"/><rect x="170" y="279" width="10" height="9" fill="#c0bdc4"/><rect x="180" y="270" width="10" height="9" fill="#ebebf0"/><rect x="180" y="279" width="10" height="9" fill="#000000"/><rect x="190" y="270" width="10" height="9" fill="#969196"/><rect x="190" y="279" width="10" height="9" fill="#c0bdc4"/><rect x="200" y="270" width="10" height="9" fill="#ebebf0"/><rect x="200" y="279" width="10" height="9" fill="#969196"/><rect x="210" y="270" width="10" height="9" fill="#969196"/><rect x="210" y="279" width="10" height="9" fill="#000000"/><rect x="220" y="270" width="10" height="9" fill="#000000"/><rect x="40" y="297" width="10" height="9" fill="#000000"/><rect x="50" y="297" width="10" height="9" fill="#000000"/><rect x="60" y="288" width="10" height="9" fill="#000000"/><rect x="60" y="297" width="10" height="9" fill="#414141"/><rect x="70" y="288" width="10" height="9" fill="#c0bdc4"/><rect x="70" y="297" width="10" height="9" fill="#c0bdc4"/><rect x="80" y="288" width="10" height="9" fill="#c0bdc4"/><rect x="80" y="297" width="10" height="9" fill="#969196"/><rect x="90" y="288" width="10" height="9" fill="#969196"/><rect x="90" y="297" width="10" height="9" fill="#c0bdc4"/><rect x="100" y="288" width="10" height="9" fill="#000000"/><rect x="100" y="297" width="10" height="9" fill="#000400"/><rect x="110" y="288" width="10" height="9" fill="#000000"/><rect x="120" y="288" width="10" height="9" fill="#000000"/><rect x="130" y="288" width="10" height="9" fill="#c0bdc4"/><rect x="130" y="297" width="10" height="9" fill="#414141"/><rect x="140" y="288" width="10" height="9" fill="#c0bdc4"/><rect x="140" y="297" width="10" height="9" fill="#c0bdc4"/><rect x="150" y="288" width="10" height="9" fill="#c0bdc4"/><rect x="150" y="297" width="10" height="9" fill="#c0bdc4"/><rect x="160" y="288" width="10" height="9" fill="#c0bdc4"/><rect x="160" y="297" width="10" height="9" fill="#c0bdc4"/><rect x="170" y="288" width="10" height="9" fill="#000000"/><rect x="170" y="297" width="10" height="9" fill="#414141"/><rect x="180" y="297" width="10" height="9" fill="#000000"/><rect x="190" y="288" width="10" height="9" fill="#000000"/><rect x="200" y="288" width="10" height="9" fill="#000000"/><rect x="30" y="306" width="10" height="9" fill="#000000"/><rect x="30" y="315" width="10" height="9" fill="#000000"/><rect x="40" y="306" width="10" height="9" fill="#c0bdc4"/><rect x="40" y="315" width="10" height="9" fill="#414141"/><rect x="50" y="306" width="10" height="9" fill="#414141"/><rect x="50" y="315" width="10" height="9" fill="#c0bdc4"/><rect x="60" y="306" width="10" height="9" fill="#c0bdc4"/><rect x="60" y="315" width="10" height="9" fill="#c0bdc4"/><rect x="70" y="306" width="10" height="9" fill="#c0bdc4"/><rect x="70" y="315" width="10" height="9" fill="#000000"/><rect x="80" y="306" width="10" height="9" fill="#000000"/><rect x="90" y="306" width="10" height="9" fill="#000400"/><rect x="140" y="306" width="10" height="9" fill="#000000"/><rect x="150" y="306" width="10" height="9" fill="#000000"/><rect x="160" y="306" width="10" height="9" fill="#c0bdc4"/><rect x="160" y="315" width="10" height="9" fill="#000000"/><rect x="170" y="306" width="10" height="9" fill="#c0bdc4"/><rect x="170" y="315" width="10" height="9" fill="#c0bdc4"/><rect x="180" y="306" width="10" height="9" fill="#414141"/><rect x="180" y="315" width="10" height="9" fill="#c0bdc4"/><rect x="190" y="306" width="10" height="9" fill="#000000"/><rect x="190" y="315" width="10" height="9" fill="#000000"/><rect x="40" y="324" width="10" height="9" fill="#000000"/><rect x="50" y="324" width="10" height="9" fill="#000000"/><rect x="60" y="324" width="10" height="9" fill="#000000"/><rect x="140" y="333" width="10" height="9" fill="#000000"/><rect x="150" y="333" width="10" height="9" fill="#000000"/><rect x="160" y="324" width="10" height="9" fill="#000000"/><rect x="160" y="333" width="10" height="9" fill="#ebebf0"/><rect x="170" y="324" width="10" height="9" fill="#c0bdc4"/><rect x="170" y="333" width="10" height="9" fill="#ebebf0"/><rect x="180" y="324" width="10" height="9" fill="#c0bdc4"/><rect x="180" y="333" width="10" height="9" fill="#c0bdc4"/><rect x="190" y="324" width="10" height="9" fill="#000000"/><rect x="190" y="333" width="10" height="9" fill="#000000"/><rect x="130" y="342" width="10" height="9" fill="#000000"/><rect x="130" y="351" width="10" height="9" fill="#000000"/><rect x="140" y="342" width="10" height="9" fill="#414141"/><rect x="140" y="351" width="10" height="9" fill="#ebebf0"/><rect x="150" y="342" width="10" height="9" fill="#ebebf0"/><rect x="150" y="351" width="10" height="9" fill="#ebebf0"/><rect x="160" y="342" width="10" height="9" fill="#969196"/><rect x="160" y="351" width="10" height="9" fill="#969196"/><rect x="170" y="342" width="10" height="9" fill="#ebebf0"/><rect x="170" y="351" width="10" height="9" fill="#ebebf0"/><rect x="180" y="342" width="10" height="9" fill="#ebebf0"/><rect x="180" y="351" width="10" height="9" fill="#000000"/><rect x="190" y="342" width="10" height="9" fill="#000000"/><rect x="140" y="360" width="10" height="9" fill="#000000"/><rect x="150" y="360" width="10" height="9" fill="#000000"/><rect x="160" y="360" width="10" height="9" fill="#ebebf0"/><rect x="160" y="369" width="10" height="9" fill="#000000"/><rect x="170" y="360" width="10" height="9" fill="#ebebf0"/><rect x="170" y="369" width="10" height="9" fill="#000000"/><rect x="180" y="360" width="10" height="9" fill="#000000"/></g>
  <g font-family="ui-monospace, SFMono-Regular, Menlo, Consolas, monospace">
    <text x="365" y="137" fill="#f8fafc" font-size="46" font-weight="800">POKÉDEX</text>
    <text x="365" y="187" fill="#94f076" font-size="46" font-weight="800">CLI</text>
    <text x="368" y="226" fill="#cbd5e1" font-size="15">catch · train · evolve</text>
  </g>
</svg>
