<svg xmlns="http://www.w3.org/2000/svg" width="720" height="320" viewBox="0 0 720 320" role="img" aria-labelledby="title desc">
  <title id="title">POKÉDEX CLI</title>
  <desc id="desc">Generated from Krabby sprite: noctowl, form=regular, shiny=False</desc>
  <defs>
    <linearGradient id="card" x1="0" y1="0" x2="1" y2="1">
      <stop offset="0" stop-color="#332c0f"/>
      <stop offset="1" stop-color="#191708"/>
    </linearGradient>
    <filter id="glow"><feGaussianBlur stdDeviation="7"/></filter>
  </defs>
  <rect width="720" height="320" rx="28" fill="url(#card)"/>
  <circle cx="171" cy="160" r="116" fill="#e1d299" opacity=".14" filter="url(#glow)"/>
  <g transform="translate(84.2456 28) scale(0.754386)" shape-rendering="crispEdges"><rect x="20" y="9" width="10" height="9" fill="#000000"/><rect x="30" y="0" width="10" height="9" fill="#000000"/><rect x="30" y="9" width="10" height="9" fill="#e7cf9c"/><rect x="40" y="9" width="10" height="9" fill="#000400"/><rect x="150" y="9" width="10" height="9" fill="#000000"/><rect x="160" y="9" width="10" height="9" fill="#000000"/><rect x="20" y="18" width="10" height="9" fill="#000000"/><rect x="20" y="27" width="10" height="9" fill="#000000"/><rect x="30" y="18" width="10" height="9" fill="#9a8b68"/><rect x="30" y="27" width="10" height="9" fill="#ded394"/><rect x="40" y="18" width="10" height="9" fill="#000400"/><rect x="40" y="27" width="10" height="9" fill="#000000"/><rect x="140" y="18" width="10" height="9" fill="#000000"/><rect x="140" y="27" width="10" height="9" fill="#000000"/><rect x="150" y="18" width="10" height="9" fill="#ded39c"/><rect x="150" y="27" width="10" height="9" fill="#ded296"/><rect x="160" y="18" width="10" height="9" fill="#4a4634"/><rect x="160" y="27" width="10" height="9" fill="#ad9a5a"/><rect x="170" y="18" width="10" height="9" fill="#000000"/><rect x="170" y="27" width="10" height="9" fill="#000000"/><rect x="10" y="36" width="10" height="9" fill="#000000"/><rect x="10" y="45" width="10" height="9" fill="#000000"/><rect x="20" y="36" width="10" height="9" fill="#ad9a5a"/><rect x="20" y="45" width="10" height="9" fill="#ded394"/><rect x="30" y="36" width="10" height="9" fill="#ded394"/><rect x="30" y="45" width="10" height="9" fill="#efd794"/><rect x="40" y="36" width="10" height="9" fill="#000000"/><rect x="40" y="45" width="10" height="9" fill="#000000"/><rect x="120" y="45" width="10" height="9" fill="#000000"/><rect x="130" y="36" width="10" height="9" fill="#000000"/><rect x="130" y="45" width="10" height="9" fill="#ded296"/><rect x="140" y="36" width="10" height="9" fill="#ad9a5a"/><rect x="140" y="45" width="10" height="9" fill="#ad9a5a"/><rect x="150" y="36" width="10" height="9" fill="#ded296"/><rect x="150" y="45" width="10" height="9" fill="#e1d299"/><rect x="160" y="36" width="10" height="9" fill="#ad9a5a"/><rect x="160" y="45" width="10" height="9" fill="#e1d299"/><rect x="170" y="36" width="10" height="9" fill="#ded394"/><rect x="170" y="45" width="10" height="9" fill="#ded394"/><rect x="180" y="36" width="10" height="9" fill="#000000"/><rect x="180" y="45" width="10" height="9" fill="#000000"/><rect x="10" y="54" width="10" height="9" fill="#000000"/><rect x="10" y="63" width="10" height="9" fill="#000000"/><rect x="20" y="54" width="10" height="9" fill="#ded394"/><rect x="20" y="63" width="10" height="9" fill="#ded394"/><rect x="30" y="54" width="10" height="9" fill="#9f8f62"/><rect x="30" y="63" width="10" height="9" fill="#ad9a5a"/><rect x="40" y="54" width="10" height="9" fill="#000000"/><rect x="40" y="63" width="10" height="9" fill="#000000"/><rect x="80" y="63" width="10" height="9" fill="#000000"/><rect x="90" y="63" width="10" height="9" fill="#000000"/><rect x="100" y="63" width="10" height="9" fill="#000000"/><rect x="110" y="63" width="10" height="9" fill="#000008"/><rect x="120" y="54" width="10" height="9" fill="#000000"/><rect x="120" y="63" width="10" height="9" fill="#4a4539"/><rect x="130" y="54" width="10" height="9" fill="#ded296"/><rect x="130" y="63" width="10" height="9" fill="#e1d299"/><rect x="140" y="54" width="10" height="9" fill="#ded296"/><rect x="140" y="63" width="10" height="9" fill="#e1d299"/><rect x="150" y="54" width="10" height="9" fill="#e1d299"/><rect x="150" y="63" width="10" height="9" fill="#e1d299"/><rect x="160" y="54" width="10" height="9" fill="#e1d299"/><rect x="160" y="63" width="10" height="9" fill="#e1d299"/><rect x="170" y="54" width="10" height="9" fill="#ded394"/><rect x="170" y="63" width="10" height="9" fill="#ded394"/><rect x="180" y="54" width="10" height="9" fill="#000000"/><rect x="180" y="63" width="10" height="9" fill="#000000"/><rect x="10" y="72" width="10" height="9" fill="#000000"/><rect x="10" y="81" width="10" height="9" fill="#000000"/><rect x="20" y="72" width="10" height="9" fill="#ded394"/><rect x="20" y="81" width="10" height="9" fill="#ded394"/><rect x="30" y="72" width="10" height="9" fill="#ad9a5a"/><rect x="30" y="81" width="10" height="9" fill="#b0975d"/><rect x="40" y="72" width="10" height="9" fill="#000000"/><rect x="40" y="81" width="10" height="9" fill="#424142"/><rect x="50" y="81" width="10" height="9" fill="#000008"/><rect x="60" y="72" width="10" height="9" fill="#000000"/><rect x="60" y="81" width="10" height="9" fill="#a5826b"/><rect x="70" y="72" width="10" height="9" fill="#000000"/><rect x="70" y="81" width="10" height="9" fill="#aa8368"/><rect x="80" y="72" width="10" height="9" fill="#ad826b"/><rect x="80" y="81" width="10" height="9" fill="#aa8368"/><rect x="90" y="72" width="10" height="9" fill="#aa8468"/><rect x="90" y="81" width="10" height="9" fill="#aa8368"/><rect x="100" y="72" width="10" height="9" fill="#aa8468"/><rect x="100" y="81" width="10" height="9" fill="#aa8368"/><rect x="110" y="72" width="10" height="9" fill="#4a4539"/><rect x="110" y="81" width="10" height="9" fill="#424142"/><rect x="120" y="72" width="10" height="9" fill="#decf9c"/><rect x="120" y="81" width="10" height="9" fill="#ded394"/><rect x="130" y="72" width="10" height="9" fill="#e1d299"/><rect x="130" y="81" width="10" height="9" fill="#e1d299"/><rect x="140" y="72" width="10" height="9" fill="#e1d299"/><rect x="140" y="81" width="10" height="9" fill="#e1d299"/><rect x="150" y="72" width="10" height="9" fill="#e1d299"/><rect x="150" y="81" width="10" height="9" fill="#e1d299"/><rect x="160" y="72" width="10" height="9" fill="#e1d299"/><rect x="160" y="81" width="10" height="9" fill="#e1d299"/><rect x="170" y="72" width="10" height="9" fill="#ded394"/><rect x="170" y="81" width="10" height="9" fill="#000000"/><rect x="180" y="72" width="10" height="9" fill="#000000"/><rect x="0" y="90" width="10" height="9" fill="#000000"/><rect x="0" y="99" width="10" height="9" fill="#000000"/><rect x="10" y="90" width="10" height="9" fill="#ded394"/><rect x="10" y="99" width="10" height="9" fill="#e1d299"/><rect x="20" y="90" width="10" height="9" fill="#ded394"/><rect x="20" y="99" width="10" height="9" fill="#e1d299"/><rect x="30" y="90" width="10" height="9" fill="#b0975d"/><rect x="30" y="99" width="10" height="9" fill="#aa9f73"/><rect x="40" y="90" width="10" height="9" fill="#b0975d"/><rect x="40" y="99" width="10" height="9" fill="#424142"/><rect x="50" y="90" width="10" height="9" fill="#524139"/><rect x="50" y="99" width="10" height="9" fill="#ded394"/><rect x="60" y="90" width="10" height="9" fill="#a5826b"/><rect x="60" y="99" width="10" height="9" fill="#424142"/><rect x="70" y="90" width="10" height="9" fill="#aa8368"/><rect x="70" y="99" width="10" height="9" fill="#aa8368"/><rect x="80" y="90" width="10" height="9" fill="#aa8368"/><rect x="80" y="99" width="10" height="9" fill="#aa8368"/><rect x="90" y="90" width="10" height="9" fill="#aa8368"/><rect x="90" y="99" width="10" height="9" fill="#aa8468"/><rect x="100" y="90" width="10" height="9" fill="#aa8368"/><rect x="100" y="99" width="10" height="9" fill="#aa8468"/><rect x="110" y="90" width="10" height="9" fill="#424142"/><rect x="110" y="99" width="10" height="9" fill="#424142"/><rect x="120" y="90" width="10" height="9" fill="#ded394"/><rect x="120" y="99" width="10" height="9" fill="#ded394"/><rect x="130" y="90" width="10" height="9" fill="#e1d299"/><rect x="130" y="99" width="10" height="9" fill="#e1d299"/><rect x="140" y="90" width="10" height="9" fill="#e1d299"/><rect x="140" y="99" width="10" height="9" fill="#e1d299"/><rect x="150" y="90" width="10" height="9" fill="#e1d299"/><rect x="150" y="99" width="10" height="9" fill="#e1d299"/><rect x="160" y="90" width="10" height="9" fill="#e1d299"/><rect x="160" y="99" width="10" height="9" fill="#e1d299"/><rect x="170" y="90" width="10" height="9" fill="#000000"/><rect x="170" y="99" width="10" height="9" fill="#424042"/><rect x="180" y="99" width="10" height="9" fill="#000000"/><rect x="0" y="108" width="10" height="9" fill="#000000"/><rect x="10" y="108" width="10" height="9" fill="#e1d299"/><rect x="10" y="117" width="10" height="9" fill="#000000"/><rect x="20" y="108" width="10" height="9" fill="#e1d299"/><rect x="20" y="117" width="10" height="9" fill="#ded39c"/><rect x="30" y="108" width="10" height="9" fill="#decf8c"/><rect x="30" y="117" width="10" height="9" fill="#e1d299"/><rect x="40" y="108" width="10" height="9" fill="#424142"/><rect x="40" y="117" width="10" height="9" fill="#e1d299"/><rect x="50" y="108" width="10" height="9" fill="#ded394"/><rect x="50" y="117" width="10" height="9" fill="#ded296"/><rect x="60" y="108" width="10" height="9" fill="#424142"/><rect x="60" y="117" width="10" height="9" fill="#ad9a5a"/><rect x="70" y="108" width="10" height="9" fill="#aa8368"/><rect x="70" y="117" width="10" height="9" fill="#424142"/><rect x="80" y="108" width="10" height="9" fill="#aa8368"/><rect x="80" y="117" width="10" height="9" fill="#424142"/><rect x="90" y="108" width="10" height="9" fill="#424142"/><rect x="90" y="117" width="10" height="9" fill="#e1d299"/><rect x="100" y="108" width="10" height="9" fill="#424142"/><rect x="100" y="117" width="10" height="9" fill="#e1d299"/><rect x="110" y="108" width="10" height="9" fill="#ded394"/><rect x="110" y="117" width="10" height="9" fill="#ded394"/><rect x="120" y="108" width="10" height="9" fill="#ded394"/><rect x="120" y="117" width="10" height="9" fill="#ded394"/><rect x="130" y="108" width="10" height="9" fill="#e1d299"/><rect x="130" y="117" width="10" height="9" fill="#ded394"/><rect x="140" y="108" width="10" height="9" fill="#e1d299"/><rect x="140" y="117" width="10" height="9" fill="#ded394"/><rect x="150" y="108" width="10" height="9" fill="#e1d299"/><rect x="150" y="117" width="10" height="9" fill="#424142"/><rect x="160" y="108" width="10" height="9" fill="#e1d299"/><rect x="160" y="117" width="10" height="9" fill="#424142"/><rect x="170" y="108" width="10" height="9" fill="#424042"/><rect x="170" y="117" width="10" height="9" fill="#aa8368"/><rect x="180" y="108" width="10" height="9" fill="#000000"/><rect x="180" y="117" width="10" height="9" fill="#aa8368"/><rect x="190" y="117" width="10" height="9" fill="#000000"/><rect x="10" y="126" width="10" height="9" fill="#000000"/><rect x="10" y="135" width="10" height="9" fill="#000000"/><rect x="20" y="126" width="10" height="9" fill="#4a4634"/><rect x="20" y="135" width="10" height="9" fill="#adb2bd"/><rect x="30" y="126" width="10" height="9" fill="#e1d299"/><rect x="30" y="135" width="10" height="9" fill="#422c39"/><rect x="40" y="126" width="10" height="9" fill="#e1d299"/><rect x="40" y="135" width="10" height="9" fill="#dec794"/><rect x="50" y="126" width="10" height="9" fill="#ded296"/><rect x="50" y="135" width="10" height="9" fill="#e1d299"/><rect x="60" y="126" width="10" height="9" fill="#ded296"/><rect x="60" y="135" width="10" height="9" fill="#e1d299"/><rect x="70" y="126" width="10" height="9" fill="#ded394"/><rect x="70" y="135" width="10" height="9" fill="#ded394"/><rect x="80" y="126" width="10" height="9" fill="#ded394"/><rect x="80" y="135" width="10" height="9" fill="#ded394"/><rect x="90" y="126" width="10" height="9" fill="#e1d299"/><rect x="90" y="135" width="10" height="9" fill="#424142"/><rect x="100" y="126" width="10" height="9" fill="#e1d299"/><rect x="100" y="135" width="10" height="9" fill="#424142"/><rect x="110" y="126" width="10" height="9" fill="#ded394"/><rect x="110" y="135" width="10" height="9" fill="#424142"/><rect x="120" y="126" width="10" height="9" fill="#424142"/><rect x="120" y="135" width="10" height="9" fill="#424142"/><rect x="130" y="126" width="10" height="9" fill="#424142"/><rect x="130" y="135" width="10" height="9" fill="#ad946b"/><rect x="140" y="126" width="10" height="9" fill="#424142"/><rect x="140" y="135" width="10" height="9" fill="#735142"/><rect x="150" y="126" width="10" height="9" fill="#aa8468"/><rect x="150" y="135" width="10" height="9" fill="#aa8368"/><rect x="160" y="126" width="10" height="9" fill="#aa8468"/><rect x="160" y="135" width="10" height="9" fill="#aa8368"/><rect x="170" y="126" width="10" height="9" fill="#aa8368"/><rect x="170" y="135" width="10" height="9" fill="#aa8168"/><rect x="180" y="126" width="10" height="9" fill="#aa8368"/><rect x="180" y="135" width="10" height="9" fill="#aa8168"/><rect x="190" y="126" width="10" height="9" fill="#000000"/><rect x="190" y="135" width="10" height="9" fill="#000000"/><rect x="10" y="144" width="10" height="9" fill="#000000"/><rect x="10" y="153" width="10" height="9" fill="#000000"/><rect x="20" y="144" width="10" height="9" fill="#adb2bd"/><rect x="20" y="153" width="10" height="9" fill="#565573"/><rect x="30" y="144" width="10" height="9" fill="#765f57"/><rect x="30" y="153" width="10" height="9" fill="#baada4"/><rect x="40" y="144" width="10" height="9" fill="#765f57"/><rect x="40" y="153" width="10" height="9" fill="#424142"/><rect x="50" y="144" width="10" height="9" fill="#e1d299"/><rect x="50" y="153" width="10" height="9" fill="#424142"/><rect x="60" y="144" width="10" height="9" fill="#e1d299"/><rect x="60" y="153" width="10" height="9" fill="#424142"/><rect x="70" y="144" width="10" height="9" fill="#424142"/><rect x="70" y="153" width="10" height="9" fill="#39344a"/><rect x="80" y="144" width="10" height="9" fill="#424142"/><rect x="80" y="153" width="10" height="9" fill="#adaec6"/><rect x="90" y="144" width="10" height="9" fill="#ffffff"/><rect x="90" y="153" width="10" height="9" fill="#ad3039"/><rect x="100" y="144" width="10" height="9" fill="#424142"/><rect x="100" y="153" width="10" height="9" fill="#c8737b"/><rect x="110" y="144" width="10" height="9" fill="#b0b5c0"/><rect x="110" y="153" width="10" height="9" fill="#ffffff"/><rect x="120" y="144" width="10" height="9" fill="#424142"/><rect x="120" y="153" width="10" height="9" fill="#555570"/><rect x="130" y="144" width="10" height="9" fill="#e7d794"/><rect x="130" y="153" width="10" height="9" fill="#ded394"/><rect x="140" y="144" width="10" height="9" fill="#735142"/><rect x="140" y="153" width="10" height="9" fill="#6b5142"/><rect x="150" y="144" width="10" height="9" fill="#aa8368"/><rect x="150" y="153" width="10" height="9" fill="#aa8168"/><rect x="160" y="144" width="10" height="9" fill="#aa8368"/><rect x="160" y="153" width="10" height="9" fill="#aa8168"/><rect x="170" y="144" width="10" height="9" fill="#aa8168"/><rect x="170" y="153" width="10" height="9" fill="#895e58"/><rect x="180" y="144" width="10" height="9" fill="#8c5d5a"/><rect x="180" y="153" width="10" height="9" fill="#000000"/><rect x="190" y="144" width="10" height="9" fill="#000000"/><rect x="20" y="162" width="10" height="9" fill="#000000"/><rect x="20" y="171" width="10" height="9" fill="#000000"/><rect x="30" y="162" width="10" height="9" fill="#424142"/><rect x="30" y="171" width="10" height="9" fill="#ffebde"/><rect x="40" y="162" width="10" height="9" fill="#f7e3d6"/><rect x="40" y="171" width="10" height="9" fill="#ffebde"/><rect x="50" y="162" width="10" height="9" fill="#424142"/><rect x="50" y="171" width="10" height="9" fill="#ffdbc6"/><rect x="60" y="162" width="10" height="9" fill="#ded394"/><rect x="60" y="171" width="10" height="9" fill="#4a4d52"/><rect x="70" y="162" width="10" height="9" fill="#5f5c73"/><rect x="70" y="171" width="10" height="9" fill="#decf9c"/><rect x="80" y="162" width="10" height="9" fill="#5f5c73"/><rect x="80" y="171" width="10" height="9" fill="#6a6765"/><rect x="90" y="162" width="10" height="9" fill="#fffbff"/><rect x="90" y="171" width="10" height="9" fill="#545673"/><rect x="100" y="162" width="10" height="9" fill="#fffbff"/><rect x="100" y="171" width="10" height="9" fill="#545673"/><rect x="110" y="162" width="10" height="9" fill="#555570"/><rect x="110" y="171" width="10" height="9" fill="#60535d"/><rect x="120" y="162" width="10" height="9" fill="#555570"/><rect x="120" y="171" width="10" height="9" fill="#ded394"/><rect x="130" y="162" width="10" height="9" fill="#ded394"/><rect x="130" y="171" width="10" height="9" fill="#6d4f44"/><rect x="140" y="162" width="10" height="9" fill="#6b5142"/><rect x="140" y="171" width="10" height="9" fill="#6d4f44"/><rect x="150" y="162" width="10" height="9" fill="#8c5d5a"/><rect x="150" y="171" width="10" height="9" fill="#895e58"/><rect x="160" y="162" width="10" height="9" fill="#8c5d5a"/><rect x="160" y="171" width="10" height="9" fill="#895e58"/><rect x="170" y="162" width="10" height="9" fill="#895e58"/><rect x="170" y="171" width="10" height="9" fill="#000000"/><rect x="180" y="162" width="10" height="9" fill="#000000"/><rect x="30" y="180" width="10" height="9" fill="#000000"/><rect x="40" y="180" width="10" height="9" fill="#ffebde"/><rect x="40" y="189" width="10" height="9" fill="#000000"/><rect x="50" y="180" width="10" height="9" fill="#c2ab9f"/><rect x="50" y="189" width="10" height="9" fill="#686463"/><rect x="60" y="180" width="10" height="9" fill="#4a4d52"/><rect x="60" y="189" width="10" height="9" fill="#c6aaa5"/><rect x="70" y="180" width="10" height="9" fill="#31344a"/><rect x="70" y="189" width="10" height="9" fill="#443f3e"/><rect x="80" y="180" width="10" height="9" fill="#decf9c"/><rect x="80" y="189" width="10" height="9" fill="#684e4c"/><rect x="90" y="180" width="10" height="9" fill="#ded394"/><rect x="90" y="189" width="10" height="9" fill="#6d4f44"/><rect x="100" y="180" width="10" height="9" fill="#ded394"/><rect x="100" y="189" width="10" height="9" fill="#6d4f44"/><rect x="110" y="180" width="10" height="9" fill="#ded394"/><rect x="110" y="189" width="10" height="9" fill="#8b5f5a"/><rect x="120" y="180" width="10" height="9" fill="#60535d"/><rect x="120" y="189" width="10" height="9" fill="#8b5f5a"/><rect x="130" y="180" width="10" height="9" fill="#6d4f44"/><rect x="130" y="189" width="10" height="9" fill="#8e5e58"/><rect x="140" y="180" width="10" height="9" fill="#895e57"/><rect x="140" y="189" width="10" height="9" fill="#424142"/><rect x="150" y="180" width="10" height="9" fill="#895e58"/><rect x="150" y="189" width="10" height="9" fill="#424142"/><rect x="160" y="180" width="10" height="9" fill="#000000"/><rect x="160" y="189" width="10" height="9" fill="#6e4f44"/><rect x="170" y="189" width="10" height="9" fill="#000000"/><rect x="30" y="198" width="10" height="9" fill="#000000"/><rect x="30" y="207" width="10" height="9" fill="#000408"/><rect x="40" y="198" width="10" height="9" fill="#6f5146"/><rect x="40" y="207" width="10" height="9" fill="#6b514a"/><rect x="50" y="198" width="10" height="9" fill="#394142"/><rect x="50" y="207" width="10" height="9" fill="#4f433f"/><rect x="60" y="198" width="10" height="9" fill="#394142"/><rect x="60" y="207" width="10" height="9" fill="#ad826b"/><rect x="70" y="198" width="10" height="9" fill="#8c5d5a"/><rect x="70" y="207" width="10" height="9" fill="#ad826b"/><rect x="80" y="198" width="10" height="9" fill="#8c5d5a"/><rect x="80" y="207" width="10" height="9" fill="#816255"/><rect x="90" y="198" width="10" height="9" fill="#895e57"/><rect x="90" y="207" width="10" height="9" fill="#8c5d5a"/><rect x="100" y="198" width="10" height="9" fill="#895e57"/><rect x="100" y="207" width="10" height="9" fill="#8c5d5a"/><rect x="110" y="198" width="10" height="9" fill="#8b5f5a"/><rect x="110" y="207" width="10" height="9" fill="#896a58"/><rect x="120" y="198" width="10" height="9" fill="#8b5f5a"/><rect x="120" y="207" width="10" height="9" fill="#ad8263"/><rect x="130" y="198" width="10" height="9" fill="#424142"/><rect x="130" y="207" width="10" height="9" fill="#424142"/><rect x="140" y="198" width="10" height="9" fill="#684f4d"/><rect x="140" y="207" width="10" height="9" fill="#6e4f44"/><rect x="150" y="198" width="10" height="9" fill="#6e4f44"/><rect x="150" y="207" width="10" height="9" fill="#6e4f44"/><rect x="160" y="198" width="10" height="9" fill="#6e4f44"/><rect x="160" y="207" width="10" height="9" fill="#424142"/><rect x="170" y="198" width="10" height="9" fill="#424142"/><rect x="170" y="207" width="10" height="9" fill="#6e5044"/><rect x="180" y="198" width="10" height="9" fill="#000000"/><rect x="180" y="207" width="10" height="9" fill="#6e5044"/><rect x="190" y="207" width="10" height="9" fill="#000000"/><rect x="20" y="216" width="10" height="9" fill="#000000"/><rect x="20" y="225" width="10" height="9" fill="#000000"/><rect x="30" y="216" width="10" height="9" fill="#6b514a"/><rect x="30" y="225" width="10" height="9" fill="#6e4f44"/><rect x="40" y="216" width="10" height="9" fill="#473734"/><rect x="40" y="225" width="10" height="9" fill="#424142"/><rect x="50" y="216" width="10" height="9" fill="#4f433f"/><rect x="50" y="225" width="10" height="9" fill="#705347"/><rect x="60" y="216" width="10" height="9" fill="#4f433f"/><rect x="60" y="225" width="10" height="9" fill="#523c39"/><rect x="70" y="216" width="10" height="9" fill="#55433f"/><rect x="70" y="225" width="10" height="9" fill="#6d4f44"/><rect x="80" y="216" width="10" height="9" fill="#ad826b"/><rect x="80" y="225" width="10" height="9" fill="#aa8268"/><rect x="90" y="216" width="10" height="9" fill="#aa8168"/><rect x="90" y="225" width="10" height="9" fill="#52443d"/><rect x="100" y="216" width="10" height="9" fill="#aa8168"/><rect x="100" y="225" width="10" height="9" fill="#52443d"/><rect x="110" y="216" width="10" height="9" fill="#ad8263"/><rect x="110" y="225" width="10" height="9" fill="#4f4642"/><rect x="120" y="216" width="10" height="9" fill="#423c42"/><rect x="120" y="225" width="10" height="9" fill="#424142"/><rect x="130" y="216" width="10" height="9" fill="#6e4f44"/><rect x="130" y="225" width="10" height="9" fill="#6e5044"/><rect x="140" y="216" width="10" height="9" fill="#6e4f44"/><rect x="140" y="225" width="10" height="9" fill="#6e5044"/><rect x="150" y="216" width="10" height="9" fill="#424142"/><rect x="150" y="225" width="10" height="9" fill="#424142"/><rect x="160" y="216" width="10" height="9" fill="#6e4f44"/><rect x="160" y="225" width="10" height="9" fill="#6e4f44"/><rect x="170" y="216" width="10" height="9" fill="#6e5044"/><rect x="170" y="225" width="10" height="9" fill="#6e5044"/><rect x="180" y="216" width="10" height="9" fill="#6e5044"/><rect x="180" y="225" width="10" height="9" fill="#6e5044"/><rect x="190" y="216" width="10" height="9" fill="#000000"/><rect x="190" y="225" width="10" height="9" fill="#6f5146"/><rect x="200" y="225" width="10" height="9" fill="#000000"/><rect x="20" y="234" width="10" height="9" fill="#000000"/><rect x="30" y="234" width="10" height="9" fill="#6e4f44"/><rect x="30" y="243" width="10" height="9" fill="#000000"/><rect x="40" y="234" width="10" height="9" fill="#424142"/><rect x="40" y="243" width="10" height="9" fill="#6f5146"/><rect x="50" y="234" width="10" height="9" fill="#ad8263"/><rect x="50" y="243" width="10" height="9" fill="#424142"/><rect x="60" y="234" width="10" height="9" fill="#705347"/><rect x="60" y="243" width="10" height="9" fill="#ad8263"/><rect x="70" y="234" width="10" height="9" fill="#aa8268"/><rect x="70" y="243" width="10" height="9" fill="#aa8368"/><rect x="80" y="234" width="10" height="9" fill="#aa8268"/><rect x="80" y="243" width="10" height="9" fill="#aa8368"/><rect x="90" y="234" width="10" height="9" fill="#6b5142"/><rect x="90" y="243" width="10" height="9" fill="#ad826b"/><rect x="100" y="234" width="10" height="9" fill="#52443d"/><rect x="100" y="243" width="10" height="9" fill="#734d4a"/><rect x="110" y="234" width="10" height="9" fill="#6b5142"/><rect x="110" y="243" width="10" height="9" fill="#aa8168"/><rect x="120" y="234" width="10" height="9" fill="#424142"/><rect x="120" y="243" width="10" height="9" fill="#8c5d5a"/><rect x="130" y="234" width="10" height="9" fill="#6e5044"/><rect x="130" y="243" width="10" height="9" fill="#424142"/><rect x="140" y="234" width="10" height="9" fill="#6e5044"/><rect x="140" y="243" width="10" height="9" fill="#6e4f44"/><rect x="150" y="234" width="10" height="9" fill="#424142"/><rect x="150" y="243" width="10" height="9" fill="#6e4f44"/><rect x="160" y="234" width="10" height="9" fill="#6e4f44"/><rect x="160" y="243" width="10" height="9" fill="#424142"/><rect x="170" y="234" width="10" height="9" fill="#6e5044"/><rect x="170" y="243" width="10" height="9" fill="#6e5044"/><rect x="180" y="234" width="10" height="9" fill="#6e5044"/><rect x="180" y="243" width="10" height="9" fill="#6e5044"/><rect x="190" y="234" width="10" height="9" fill="#6f5146"/><rect x="190" y="243" width="10" height="9" fill="#6b554a"/><rect x="200" y="234" width="10" height="9" fill="#000000"/><rect x="200" y="243" width="10" height="9" fill="#000000"/><rect x="40" y="252" width="10" height="9" fill="#000000"/><rect x="50" y="252" width="10" height="9" fill="#65564d"/><rect x="50" y="261" width="10" height="9" fill="#000000"/><rect x="60" y="252" width="10" height="9" fill="#424142"/><rect x="60" y="261" width="10" height="9" fill="#000000"/><rect x="70" y="252" width="10" height="9" fill="#524542"/><rect x="70" y="261" width="10" height="9" fill="#473c39"/><rect x="80" y="252" width="10" height="9" fill="#524542"/><rect x="80" y="261" width="10" height="9" fill="#6b5952"/><rect x="90" y="252" width="10" height="9" fill="#865e55"/><rect x="90" y="261" width="10" height="9" fill="#8c5f5a"/><rect x="100" y="252" width="10" height="9" fill="#865e55"/><rect x="100" y="261" width="10" height="9" fill="#8c5f5a"/><rect x="110" y="252" width="10" height="9" fill="#8c5d5a"/><rect x="110" y="261" width="10" height="9" fill="#52443d"/><rect x="120" y="252" width="10" height="9" fill="#8c5d5a"/><rect x="120" y="261" width="10" height="9" fill="#52443d"/><rect x="130" y="252" width="10" height="9" fill="#424142"/><rect x="130" y="261" width="10" height="9" fill="#4a4142"/><rect x="140" y="252" width="10" height="9" fill="#6e4f44"/><rect x="140" y="261" width="10" height="9" fill="#4a4142"/><rect x="150" y="252" width="10" height="9" fill="#6e4f44"/><rect x="150" y="261" width="10" height="9" fill="#6e4f44"/><rect x="160" y="252" width="10" height="9" fill="#424142"/><rect x="160" y="261" width="10" height="9" fill="#6e4f44"/><rect x="170" y="252" width="10" height="9" fill="#6e5044"/><rect x="170" y="261" width="10" height="9" fill="#424142"/><rect x="180" y="252" width="10" height="9" fill="#6e5044"/><rect x="180" y="261" width="10" height="9" fill="#424142"/><rect x="190" y="252" width="10" height="9" fill="#473831"/><rect x="190" y="261" width="10" height="9" fill="#6b5952"/><rect x="200" y="252" width="10" height="9" fill="#000000"/><rect x="200" y="261" width="10" height="9" fill="#000408"/><rect x="70" y="270" width="10" height="9" fill="#000408"/><rect x="80" y="270" width="10" height="9" fill="#473c39"/><rect x="80" y="279" width="10" height="9" fill="#000000"/><rect x="90" y="270" width="10" height="9" fill="#424142"/><rect x="90" y="279" width="10" height="9" fill="#b0975d"/><rect x="100" y="270" width="10" height="9" fill="#8c5f5a"/><rect x="100" y="279" width="10" height="9" fill="#424142"/><rect x="110" y="270" width="10" height="9" fill="#6b5142"/><rect x="110" y="279" width="10" height="9" fill="#424142"/><rect x="120" y="270" width="10" height="9" fill="#52443d"/><rect x="120" y="279" width="10" height="9" fill="#424142"/><rect x="130" y="270" width="10" height="9" fill="#6b4f4d"/><rect x="130" y="279" width="10" height="9" fill="#424142"/><rect x="140" y="270" width="10" height="9" fill="#8c5e58"/><rect x="140" y="279" width="10" height="9" fill="#424142"/><rect x="150" y="270" width="10" height="9" fill="#424142"/><rect x="150" y="279" width="10" height="9" fill="#424142"/><rect x="160" y="270" width="10" height="9" fill="#424142"/><rect x="160" y="279" width="10" height="9" fill="#52453d"/><rect x="170" y="270" width="10" height="9" fill="#6e4f44"/><rect x="170" y="279" width="10" height="9" fill="#424142"/><rect x="180" y="270" width="10" height="9" fill="#6e4f44"/><rect x="180" y="279" width="10" height="9" fill="#424142"/><rect x="190" y="270" width="10" height="9" fill="#473c39"/><rect x="190" y="279" width="10" height="9" fill="#52443e"/><rect x="200" y="270" width="10" height="9" fill="#473c39"/><rect x="200" y="279" width="10" height="9" fill="#52443e"/><rect x="210" y="270" width="10" height="9" fill="#000000"/><rect x="210" y="279" width="10" height="9" fill="#52453d"/><rect x="220" y="279" width="10" height="9" fill="#000000"/><rect x="50" y="297" width="10" height="9" fill="#000000"/><rect x="60" y="288" width="10" height="9" fill="#000000"/><rect x="60" y="297" width="10" height="9" fill="#a48768"/><rect x="70" y="288" width="10" height="9" fill="#000000"/><rect x="70" y="297" width="10" height="9" fill="#444036"/><rect x="80" y="288" width="10" height="9" fill="#424142"/><rect x="80" y="297" width="10" height="9" fill="#897565"/><rect x="90" y="288" width="10" height="9" fill="#b0975d"/><rect x="90" y="297" width="10" height="9" fill="#aa8f62"/><rect x="100" y="288" width="10" height="9" fill="#b0975d"/><rect x="100" y="297" width="10" height="9" fill="#424142"/><rect x="110" y="288" width="10" height="9" fill="#424142"/><rect x="110" y="297" width="10" height="9" fill="#e7d394"/><rect x="120" y="288" width="10" height="9" fill="#b0975d"/><rect x="120" y="297" width="10" height="9" fill="#e7d394"/><rect x="130" y="288" width="10" height="9" fill="#b0975d"/><rect x="130" y="297" width="10" height="9" fill="#ded394"/><rect x="140" y="288" width="10" height="9" fill="#b0975d"/><rect x="140" y="297" width="10" height="9" fill="#ded394"/><rect x="150" y="288" width="10" height="9" fill="#424142"/><rect x="150" y="297" width="10" height="9" fill="#e7d394"/><rect x="160" y="288" width="10" height="9" fill="#52453d"/><rect x="160" y="297" width="10" height="9" fill="#4a4142"/><rect x="170" y="288" width="10" height="9" fill="#52453d"/><rect x="170" y="297" width="10" height="9" fill="#52453d"/><rect x="180" y="288" width="10" height="9" fill="#424142"/><rect x="180" y="297" width="10" height="9" fill="#52453d"/><rect x="190" y="288" width="10" height="9" fill="#52443e"/><rect x="190" y="297" width="10" height="9" fill="#000000"/><rect x="200" y="288" width="10" height="9" fill="#52443e"/><rect x="200" y="297" width="10" height="9" fill="#000000"/><rect x="210" y="288" width="10" height="9" fill="#000000"/><rect x="50" y="306" width="10" height="9" fill="#000000"/><rect x="60" y="306" width="10" height="9" fill="#000000"/><rect x="70" y="306" width="10" height="9" fill="#ceaa94"/><rect x="70" y="315" width="10" height="9" fill="#000000"/><rect x="80" y="306" width="10" height="9" fill="#897565"/><rect x="80" y="315" width="10" height="9" fill="#000000"/><rect x="90" y="306" width="10" height="9" fill="#424142"/><rect x="90" y="315" width="10" height="9" fill="#524944"/><rect x="100" y="306" width="10" height="9" fill="#aa8f62"/><rect x="100" y="315" width="10" height="9" fill="#f7dbce"/><rect x="110" y="306" width="10" height="9" fill="#988a6b"/><rect x="110" y="315" width="10" height="9" fill="#000000"/><rect x="120" y="306" width="10" height="9" fill="#4a4142"/><rect x="120" y="315" width="10" height="9" fill="#424142"/><rect x="130" y="306" width="10" height="9" fill="#ded394"/><rect x="130" y="315" width="10" height="9" fill="#a48f7e"/><rect x="140" y="306" width="10" height="9" fill="#424142"/><rect x="140" y="315" width="10" height="9" fill="#52473f"/><rect x="150" y="306" width="10" height="9" fill="#988a6b"/><rect x="150" y="315" width="10" height="9" fill="#000000"/><rect x="160" y="306" width="10" height="9" fill="#988a6b"/><rect x="160" y="315" width="10" height="9" fill="#ffdfce"/><rect x="170" y="306" width="10" height="9" fill="#000000"/><rect x="170" y="315" width="10" height="9" fill="#000000"/><rect x="180" y="306" width="10" height="9" fill="#000000"/><rect x="90" y="324" width="10" height="9" fill="#000000"/><rect x="100" y="324" width="10" height="9" fill="#000000"/><rect x="120" y="324" width="10" height="9" fill="#000000"/><rect x="130" y="324" width="10" height="9" fill="#f7d7bd"/><rect x="130" y="333" width="10" height="9" fill="#000000"/><rect x="140" y="324" width="10" height="9" fill="#000000"/><rect x="160" y="324" width="10" height="9" fill="#000000"/><rect x="170" y="324" width="10" height="9" fill="#000000"/></g>
  <g font-family="ui-monospace, SFMono-Regular, Menlo, Consolas, monospace">
    <text x="365" y="137" fill="#f8fafc" font-size="46" font-weight="800">POKÉDEX</text>
    <text x="365" y="187" fill="#e1d299" font-size="46" font-weight="800">CLI</text>
    <text x="368" y="226" fill="#cbd5e1" font-size="15">catch · train · evolve</text>
  </g>
</svg>
