<svg xmlns="http://www.w3.org/2000/svg" width="720" height="320" viewBox="0 0 720 320" role="img" aria-labelledby="title desc">
  <title id="title">Pokédex CLI</title>
  <desc id="desc">Rotom rendered from Krabby terminal sprite art beside the project name.</desc>
  <defs>
    <linearGradient id="card" x1="0" y1="0" x2="1" y2="1">
      <stop offset="0" stop-color="#111827"/>
      <stop offset="1" stop-color="#0b1020"/>
    </linearGradient>
    <filter id="glow"><feGaussianBlur stdDeviation="7"/></filter>
  </defs>
  <rect width="720" height="320" rx="28" fill="url(#card)"/>
  <circle cx="174" cy="158" r="112" fill="#73ceff" opacity=".11" filter="url(#glow)"/>
  <g shape-rendering="crispEdges"><rect x="184" y="55" width="10" height="9" fill="rgb(115, 206, 255)"/><rect x="194" y="46" width="10" height="9" fill="rgb(115, 206, 255)"/><rect x="194" y="55" width="10" height="9" fill="rgb(115, 206, 255)"/><rect x="174" y="73" width="10" height="9" fill="rgb(115, 206, 255)"/><rect x="184" y="64" width="10" height="9" fill="rgb(115, 206, 255)"/><rect x="184" y="73" width="10" height="9" fill="rgb(115, 206, 255)"/><rect x="194" y="64" width="10" height="9" fill="rgb(115, 206, 255)"/><rect x="194" y="73" width="10" height="9" fill="rgb(115, 206, 255)"/><rect x="164" y="91" width="10" height="9" fill="rgb(115, 206, 255)"/><rect x="174" y="82" width="10" height="9" fill="rgb(115, 206, 255)"/><rect x="174" y="91" width="10" height="9" fill="rgb(0, 0, 0)"/><rect x="184" y="82" width="10" height="9" fill="rgb(0, 0, 0)"/><rect x="184" y="91" width="10" height="9" fill="rgb(247, 140, 66)"/><rect x="194" y="82" width="10" height="9" fill="rgb(115, 206, 255)"/><rect x="194" y="91" width="10" height="9" fill="rgb(0, 0, 0)"/><rect x="204" y="82" width="10" height="9" fill="rgb(115, 206, 255)"/><rect x="204" y="91" width="10" height="9" fill="rgb(115, 206, 255)"/><rect x="154" y="109" width="10" height="9" fill="rgb(115, 206, 255)"/><rect x="164" y="100" width="10" height="9" fill="rgb(115, 206, 255)"/><rect x="164" y="109" width="10" height="9" fill="rgb(0, 0, 0)"/><rect x="174" y="100" width="10" height="9" fill="rgb(0, 0, 0)"/><rect x="174" y="109" width="10" height="9" fill="rgb(214, 99, 66)"/><rect x="184" y="100" width="10" height="9" fill="rgb(247, 140, 66)"/><rect x="184" y="109" width="10" height="9" fill="rgb(247, 140, 66)"/><rect x="194" y="100" width="10" height="9" fill="rgb(0, 0, 0)"/><rect x="194" y="109" width="10" height="9" fill="rgb(0, 0, 0)"/><rect x="204" y="100" width="10" height="9" fill="rgb(115, 206, 255)"/><rect x="204" y="109" width="10" height="9" fill="rgb(115, 206, 255)"/><rect x="124" y="127" width="10" height="9" fill="rgb(115, 206, 255)"/><rect x="134" y="118" width="10" height="9" fill="rgb(115, 206, 255)"/><rect x="134" y="127" width="10" height="9" fill="rgb(115, 206, 255)"/><rect x="144" y="118" width="10" height="9" fill="rgb(115, 206, 255)"/><rect x="144" y="127" width="10" height="9" fill="rgb(0, 0, 0)"/><rect x="154" y="118" width="10" height="9" fill="rgb(115, 206, 255)"/><rect x="154" y="127" width="10" height="9" fill="rgb(0, 0, 0)"/><rect x="164" y="118" width="10" height="9" fill="rgb(0, 0, 0)"/><rect x="164" y="127" width="10" height="9" fill="rgb(247, 140, 66)"/><rect x="174" y="118" width="10" height="9" fill="rgb(247, 140, 66)"/><rect x="174" y="127" width="10" height="9" fill="rgb(247, 140, 66)"/><rect x="184" y="118" width="10" height="9" fill="rgb(247, 140, 66)"/><rect x="184" y="127" width="10" height="9" fill="rgb(247, 140, 66)"/><rect x="194" y="118" width="10" height="9" fill="rgb(0, 0, 0)"/><rect x="194" y="127" width="10" height="9" fill="rgb(214, 99, 66)"/><rect x="204" y="118" width="10" height="9" fill="rgb(115, 206, 255)"/><rect x="204" y="127" width="10" height="9" fill="rgb(0, 0, 0)"/><rect x="214" y="118" width="10" height="9" fill="rgb(115, 206, 255)"/><rect x="214" y="127" width="10" height="9" fill="rgb(115, 206, 255)"/><rect x="224" y="127" width="10" height="9" fill="rgb(115, 206, 255)"/><rect x="114" y="136" width="10" height="9" fill="rgb(115, 206, 255)"/><rect x="114" y="145" width="10" height="9" fill="rgb(115, 206, 255)"/><rect x="124" y="136" width="10" height="9" fill="rgb(115, 206, 255)"/><rect x="124" y="145" width="10" height="9" fill="rgb(0, 0, 0)"/><rect x="134" y="136" width="10" height="9" fill="rgb(0, 0, 0)"/><rect x="134" y="145" width="10" height="9" fill="rgb(255, 255, 255)"/><rect x="144" y="136" width="10" height="9" fill="rgb(247, 140, 66)"/><rect x="144" y="145" width="10" height="9" fill="rgb(247, 140, 66)"/><rect x="154" y="136" width="10" height="9" fill="rgb(247, 140, 66)"/><rect x="154" y="145" width="10" height="9" fill="rgb(247, 140, 66)"/><rect x="164" y="136" width="10" height="9" fill="rgb(247, 140, 66)"/><rect x="164" y="145" width="10" height="9" fill="rgb(247, 140, 66)"/><rect x="174" y="136" width="10" height="9" fill="rgb(247, 140, 66)"/><rect x="174" y="145" width="10" height="9" fill="rgb(247, 140, 66)"/><rect x="184" y="136" width="10" height="9" fill="rgb(247, 140, 66)"/><rect x="184" y="145" width="10" height="9" fill="rgb(247, 140, 66)"/><rect x="194" y="136" width="10" height="9" fill="rgb(247, 140, 66)"/><rect x="194" y="145" width="10" height="9" fill="rgb(247, 140, 66)"/><rect x="204" y="136" width="10" height="9" fill="rgb(214, 99, 66)"/><rect x="204" y="145" width="10" height="9" fill="rgb(247, 140, 66)"/><rect x="214" y="136" width="10" height="9" fill="rgb(0, 0, 0)"/><rect x="214" y="145" width="10" height="9" fill="rgb(0, 0, 0)"/><rect x="224" y="136" width="10" height="9" fill="rgb(115, 206, 255)"/><rect x="224" y="145" width="10" height="9" fill="rgb(115, 206, 255)"/><rect x="234" y="145" width="10" height="9" fill="rgb(115, 206, 255)"/><rect x="104" y="163" width="10" height="9" fill="rgb(115, 206, 255)"/><rect x="114" y="154" width="10" height="9" fill="rgb(115, 206, 255)"/><rect x="114" y="163" width="10" height="9" fill="rgb(115, 206, 255)"/><rect x="124" y="154" width="10" height="9" fill="rgb(0, 0, 0)"/><rect x="124" y="163" width="10" height="9" fill="rgb(0, 0, 0)"/><rect x="134" y="154" width="10" height="9" fill="rgb(189, 189, 189)"/><rect x="134" y="163" width="10" height="9" fill="rgb(255, 255, 255)"/><rect x="144" y="154" width="10" height="9" fill="rgb(66, 123, 214)"/><rect x="144" y="163" width="10" height="9" fill="rgb(66, 123, 214)"/><rect x="154" y="154" width="10" height="9" fill="rgb(247, 140, 66)"/><rect x="154" y="163" width="10" height="9" fill="rgb(247, 140, 66)"/><rect x="164" y="154" width="10" height="9" fill="rgb(247, 140, 66)"/><rect x="164" y="163" width="10" height="9" fill="rgb(247, 140, 66)"/><rect x="174" y="154" width="10" height="9" fill="rgb(247, 140, 66)"/><rect x="174" y="163" width="10" height="9" fill="rgb(189, 189, 189)"/><rect x="184" y="154" width="10" height="9" fill="rgb(255, 255, 255)"/><rect x="184" y="163" width="10" height="9" fill="rgb(66, 123, 214)"/><rect x="194" y="154" width="10" height="9" fill="rgb(255, 255, 255)"/><rect x="194" y="163" width="10" height="9" fill="rgb(255, 255, 255)"/><rect x="204" y="154" width="10" height="9" fill="rgb(247, 140, 66)"/><rect x="204" y="163" width="10" height="9" fill="rgb(214, 99, 66)"/><rect x="214" y="154" width="10" height="9" fill="rgb(214, 99, 66)"/><rect x="214" y="163" width="10" height="9" fill="rgb(214, 99, 66)"/><rect x="224" y="154" width="10" height="9" fill="rgb(0, 0, 0)"/><rect x="224" y="163" width="10" height="9" fill="rgb(0, 0, 0)"/><rect x="234" y="154" width="10" height="9" fill="rgb(115, 206, 255)"/><rect x="234" y="163" width="10" height="9" fill="rgb(115, 206, 255)"/><rect x="64" y="181" width="10" height="9" fill="rgb(115, 206, 255)"/><rect x="74" y="181" width="10" height="9" fill="rgb(115, 206, 255)"/><rect x="84" y="172" width="10" height="9" fill="rgb(115, 206, 255)"/><rect x="84" y="181" width="10" height="9" fill="rgb(255, 255, 255)"/><rect x="94" y="172" width="10" height="9" fill="rgb(181, 222, 255)"/><rect x="94" y="181" width="10" height="9" fill="rgb(255, 255, 255)"/><rect x="104" y="172" width="10" height="9" fill="rgb(255, 255, 255)"/><rect x="104" y="181" width="10" height="9" fill="rgb(115, 206, 255)"/><rect x="114" y="172" width="10" height="9" fill="rgb(115, 206, 255)"/><rect x="114" y="181" width="10" height="9" fill="rgb(115, 206, 255)"/><rect x="124" y="172" width="10" height="9" fill="rgb(115, 206, 255)"/><rect x="134" y="172" width="10" height="9" fill="rgb(0, 0, 0)"/><rect x="134" y="181" width="10" height="9" fill="rgb(115, 206, 255)"/><rect x="144" y="172" width="10" height="9" fill="rgb(247, 140, 66)"/><rect x="144" y="181" width="10" height="9" fill="rgb(0, 0, 0)"/><rect x="154" y="172" width="10" height="9" fill="rgb(65, 65, 65)"/><rect x="154" y="181" width="10" height="9" fill="rgb(0, 0, 0)"/><rect x="164" y="172" width="10" height="9" fill="rgb(65, 65, 65)"/><rect x="164" y="181" width="10" height="9" fill="rgb(214, 99, 66)"/><rect x="174" y="172" width="10" height="9" fill="rgb(255, 255, 255)"/><rect x="174" y="181" width="10" height="9" fill="rgb(255, 255, 255)"/><rect x="184" y="172" width="10" height="9" fill="rgb(66, 123, 214)"/><rect x="184" y="181" width="10" height="9" fill="rgb(255, 255, 255)"/><rect x="194" y="172" width="10" height="9" fill="rgb(189, 189, 189)"/><rect x="194" y="181" width="10" height="9" fill="rgb(214, 99, 66)"/><rect x="204" y="172" width="10" height="9" fill="rgb(214, 99, 66)"/><rect x="204" y="181" width="10" height="9" fill="rgb(214, 99, 66)"/><rect x="214" y="172" width="10" height="9" fill="rgb(181, 74, 66)"/><rect x="214" y="181" width="10" height="9" fill="rgb(0, 0, 0)"/><rect x="224" y="172" width="10" height="9" fill="rgb(0, 0, 0)"/><rect x="224" y="181" width="10" height="9" fill="rgb(181, 222, 255)"/><rect x="234" y="172" width="10" height="9" fill="rgb(115, 206, 255)"/><rect x="234" y="181" width="10" height="9" fill="rgb(115, 206, 255)"/><rect x="64" y="199" width="10" height="9" fill="rgb(115, 206, 255)"/><rect x="74" y="190" width="10" height="9" fill="rgb(115, 206, 255)"/><rect x="74" y="199" width="10" height="9" fill="rgb(115, 206, 255)"/><rect x="84" y="190" width="10" height="9" fill="rgb(115, 206, 255)"/><rect x="84" y="199" width="10" height="9" fill="rgb(255, 255, 255)"/><rect x="94" y="190" width="10" height="9" fill="rgb(115, 206, 255)"/><rect x="94" y="199" width="10" height="9" fill="rgb(115, 206, 255)"/><rect x="104" y="199" width="10" height="9" fill="rgb(115, 206, 255)"/><rect x="144" y="190" width="10" height="9" fill="rgb(115, 206, 255)"/><rect x="144" y="199" width="10" height="9" fill="rgb(115, 206, 255)"/><rect x="154" y="190" width="10" height="9" fill="rgb(115, 206, 255)"/><rect x="154" y="199" width="10" height="9" fill="rgb(0, 0, 0)"/><rect x="164" y="190" width="10" height="9" fill="rgb(0, 0, 0)"/><rect x="164" y="199" width="10" height="9" fill="rgb(247, 140, 66)"/><rect x="174" y="190" width="10" height="9" fill="rgb(214, 99, 66)"/><rect x="174" y="199" width="10" height="9" fill="rgb(247, 140, 66)"/><rect x="184" y="190" width="10" height="9" fill="rgb(65, 65, 65)"/><rect x="184" y="199" width="10" height="9" fill="rgb(214, 99, 66)"/><rect x="194" y="190" width="10" height="9" fill="rgb(65, 65, 65)"/><rect x="194" y="199" width="10" height="9" fill="rgb(0, 0, 0)"/><rect x="204" y="190" width="10" height="9" fill="rgb(0, 0, 0)"/><rect x="204" y="199" width="10" height="9" fill="rgb(115, 206, 255)"/><rect x="214" y="190" width="10" height="9" fill="rgb(115, 206, 255)"/><rect x="214" y="199" width="10" height="9" fill="rgb(115, 206, 255)"/><rect x="224" y="190" width="10" height="9" fill="rgb(115, 206, 255)"/><rect x="224" y="199" width="10" height="9" fill="rgb(115, 206, 255)"/><rect x="234" y="190" width="10" height="9" fill="rgb(255, 255, 255)"/><rect x="234" y="199" width="10" height="9" fill="rgb(181, 222, 255)"/><rect x="244" y="190" width="10" height="9" fill="rgb(115, 206, 255)"/><rect x="244" y="199" width="10" height="9" fill="rgb(255, 255, 255)"/><rect x="254" y="199" width="10" height="9" fill="rgb(115, 206, 255)"/><rect x="34" y="217" width="10" height="9" fill="rgb(115, 206, 255)"/><rect x="44" y="208" width="10" height="9" fill="rgb(115, 206, 255)"/><rect x="44" y="217" width="10" height="9" fill="rgb(181, 222, 255)"/><rect x="54" y="208" width="10" height="9" fill="rgb(115, 206, 255)"/><rect x="54" y="217" width="10" height="9" fill="rgb(255, 255, 255)"/><rect x="64" y="208" width="10" height="9" fill="rgb(181, 222, 255)"/><rect x="64" y="217" width="10" height="9" fill="rgb(255, 255, 255)"/><rect x="74" y="208" width="10" height="9" fill="rgb(255, 255, 255)"/><rect x="74" y="217" width="10" height="9" fill="rgb(181, 222, 255)"/><rect x="84" y="208" width="10" height="9" fill="rgb(255, 255, 255)"/><rect x="84" y="217" width="10" height="9" fill="rgb(181, 222, 255)"/><rect x="94" y="208" width="10" height="9" fill="rgb(255, 255, 255)"/><rect x="94" y="217" width="10" height="9" fill="rgb(115, 206, 255)"/><rect x="104" y="208" width="10" height="9" fill="rgb(115, 206, 255)"/><rect x="104" y="217" width="10" height="9" fill="rgb(115, 206, 255)"/><rect x="114" y="217" width="10" height="9" fill="rgb(115, 206, 255)"/><rect x="144" y="208" width="10" height="9" fill="rgb(115, 206, 255)"/><rect x="154" y="208" width="10" height="9" fill="rgb(0, 0, 0)"/><rect x="154" y="217" width="10" height="9" fill="rgb(115, 206, 255)"/><rect x="164" y="208" width="10" height="9" fill="rgb(181, 74, 66)"/><rect x="164" y="217" width="10" height="9" fill="rgb(0, 0, 0)"/><rect x="174" y="208" width="10" height="9" fill="rgb(214, 99, 66)"/><rect x="174" y="217" width="10" height="9" fill="rgb(0, 0, 0)"/><rect x="184" y="208" width="10" height="9" fill="rgb(181, 74, 66)"/><rect x="184" y="217" width="10" height="9" fill="rgb(0, 0, 0)"/><rect x="194" y="208" width="10" height="9" fill="rgb(0, 0, 0)"/><rect x="194" y="217" width="10" height="9" fill="rgb(115, 206, 255)"/><rect x="204" y="208" width="10" height="9" fill="rgb(115, 206, 255)"/><rect x="204" y="217" width="10" height="9" fill="rgb(115, 206, 255)"/><rect x="224" y="217" width="10" height="9" fill="rgb(115, 206, 255)"/><rect x="234" y="208" width="10" height="9" fill="rgb(115, 206, 255)"/><rect x="234" y="217" width="10" height="9" fill="rgb(115, 206, 255)"/><rect x="244" y="208" width="10" height="9" fill="rgb(181, 222, 255)"/><rect x="244" y="217" width="10" height="9" fill="rgb(115, 206, 255)"/><rect x="254" y="208" width="10" height="9" fill="rgb(255, 255, 255)"/><rect x="254" y="217" width="10" height="9" fill="rgb(181, 222, 255)"/><rect x="264" y="208" width="10" height="9" fill="rgb(115, 206, 255)"/><rect x="264" y="217" width="10" height="9" fill="rgb(181, 222, 255)"/><rect x="274" y="208" width="10" height="9" fill="rgb(115, 206, 255)"/><rect x="274" y="217" width="10" height="9" fill="rgb(115, 206, 255)"/><rect x="284" y="217" width="10" height="9" fill="rgb(115, 206, 255)"/><rect x="24" y="226" width="10" height="9" fill="rgb(115, 206, 255)"/><rect x="34" y="226" width="10" height="9" fill="rgb(115, 206, 255)"/><rect x="44" y="226" width="10" height="9" fill="rgb(115, 206, 255)"/><rect x="54" y="226" width="10" height="9" fill="rgb(115, 206, 255)"/><rect x="64" y="226" width="10" height="9" fill="rgb(115, 206, 255)"/><rect x="74" y="226" width="10" height="9" fill="rgb(115, 206, 255)"/><rect x="84" y="226" width="10" height="9" fill="rgb(115, 206, 255)"/><rect x="164" y="226" width="10" height="9" fill="rgb(115, 206, 255)"/><rect x="164" y="235" width="10" height="9" fill="rgb(115, 206, 255)"/><rect x="174" y="226" width="10" height="9" fill="rgb(115, 206, 255)"/><rect x="174" y="235" width="10" height="9" fill="rgb(115, 206, 255)"/><rect x="184" y="226" width="10" height="9" fill="rgb(115, 206, 255)"/><rect x="184" y="235" width="10" height="9" fill="rgb(115, 206, 255)"/><rect x="194" y="226" width="10" height="9" fill="rgb(115, 206, 255)"/><rect x="214" y="226" width="10" height="9" fill="rgb(115, 206, 255)"/><rect x="214" y="235" width="10" height="9" fill="rgb(115, 206, 255)"/><rect x="224" y="226" width="10" height="9" fill="rgb(181, 222, 255)"/><rect x="224" y="235" width="10" height="9" fill="rgb(255, 255, 255)"/><rect x="234" y="226" width="10" height="9" fill="rgb(181, 222, 255)"/><rect x="234" y="235" width="10" height="9" fill="rgb(255, 255, 255)"/><rect x="244" y="226" width="10" height="9" fill="rgb(255, 255, 255)"/><rect x="244" y="235" width="10" height="9" fill="rgb(255, 255, 255)"/><rect x="254" y="226" width="10" height="9" fill="rgb(115, 206, 255)"/><rect x="254" y="235" width="10" height="9" fill="rgb(181, 222, 255)"/><rect x="264" y="235" width="10" height="9" fill="rgb(115, 206, 255)"/><rect x="174" y="244" width="10" height="9" fill="rgb(115, 206, 255)"/><rect x="174" y="253" width="10" height="9" fill="rgb(115, 206, 255)"/><rect x="224" y="244" width="10" height="9" fill="rgb(115, 206, 255)"/><rect x="234" y="244" width="10" height="9" fill="rgb(181, 222, 255)"/><rect x="234" y="253" width="10" height="9" fill="rgb(115, 206, 255)"/><rect x="244" y="244" width="10" height="9" fill="rgb(255, 255, 255)"/><rect x="244" y="253" width="10" height="9" fill="rgb(115, 206, 255)"/><rect x="254" y="244" width="10" height="9" fill="rgb(255, 255, 255)"/><rect x="254" y="253" width="10" height="9" fill="rgb(181, 222, 255)"/><rect x="264" y="244" width="10" height="9" fill="rgb(115, 206, 255)"/><rect x="264" y="253" width="10" height="9" fill="rgb(255, 255, 255)"/><rect x="274" y="253" width="10" height="9" fill="rgb(115, 206, 255)"/><rect x="254" y="262" width="10" height="9" fill="rgb(115, 206, 255)"/><rect x="264" y="262" width="10" height="9" fill="rgb(181, 222, 255)"/><rect x="264" y="271" width="10" height="9" fill="rgb(115, 206, 255)"/><rect x="274" y="262" width="10" height="9" fill="rgb(255, 255, 255)"/><rect x="274" y="271" width="10" height="9" fill="rgb(115, 206, 255)"/><rect x="284" y="262" width="10" height="9" fill="rgb(115, 206, 255)"/><rect x="284" y="271" width="10" height="9" fill="rgb(115, 206, 255)"/><rect x="284" y="280" width="10" height="9" fill="rgb(115, 206, 255)"/><rect x="294" y="280" width="10" height="9" fill="rgb(115, 206, 255)"/></g>
  <g font-family="ui-monospace, SFMono-Regular, Menlo, Consolas, monospace">
    <text x="365" y="137" fill="#f8fafc" font-size="46" font-weight="800">POKÉDEX</text>
    <text x="365" y="187" fill="#73ceff" font-size="46" font-weight="800">CLI</text>
    <text x="368" y="226" fill="#94a3b8" font-size="15">catch · train · evolve</text>
  </g>
  <text x="696" y="298" text-anchor="end" fill="#64748b" font-family="sans-serif" font-size="10">sprite art via Krabby</text>
</svg>
