<svg xmlns="http://www.w3.org/2000/svg" width="720" height="320" viewBox="0 0 720 320" role="img" aria-labelledby="title desc">
  <title id="title">POKÉDEX CLI</title>
  <desc id="desc">Generated from Krabby sprite: rotom, form=regular, shiny=False</desc>
  <defs>
    <linearGradient id="card" x1="0" y1="0" x2="1" y2="1">
      <stop offset="0" stop-color="#092839"/>
      <stop offset="1" stop-color="#1d0e05"/>
    </linearGradient>
    <filter id="glow"><feGaussianBlur stdDeviation="7"/></filter>
  </defs>
  <rect width="720" height="320" rx="28" fill="url(#card)"/>
  <circle cx="171" cy="160" r="116" fill="#73ceff" opacity=".14" filter="url(#glow)"/>
  <g transform="translate(31 31) scale(1)" shape-rendering="crispEdges"><rect x="160" y="9" width="10" height="9" fill="#73ceff"/><rect x="170" y="0" width="10" height="9" fill="#73ceff"/><rect x="170" y="9" width="10" height="9" fill="#73ceff"/><rect x="150" y="27" width="10" height="9" fill="#73ceff"/><rect x="160" y="18" width="10" height="9" fill="#73ceff"/><rect x="160" y="27" width="10" height="9" fill="#73ceff"/><rect x="170" y="18" width="10" height="9" fill="#73ceff"/><rect x="170" y="27" width="10" height="9" fill="#73ceff"/><rect x="140" y="45" width="10" height="9" fill="#73ceff"/><rect x="150" y="36" width="10" height="9" fill="#73ceff"/><rect x="150" y="45" width="10" height="9" fill="#000000"/><rect x="160" y="36" width="10" height="9" fill="#000000"/><rect x="160" y="45" width="10" height="9" fill="#f78c42"/><rect x="170" y="36" width="10" height="9" fill="#73ceff"/><rect x="170" y="45" width="10" height="9" fill="#000000"/><rect x="180" y="36" width="10" height="9" fill="#73ceff"/><rect x="180" y="45" width="10" height="9" fill="#73ceff"/><rect x="130" y="63" width="10" height="9" fill="#73ceff"/><rect x="140" y="54" width="10" height="9" fill="#73ceff"/><rect x="140" y="63" width="10" height="9" fill="#000000"/><rect x="150" y="54" width="10" height="9" fill="#000000"/><rect x="150" y="63" width="10" height="9" fill="#d66342"/><rect x="160" y="54" width="10" height="9" fill="#f78c42"/><rect x="160" y="63" width="10" height="9" fill="#f78c42"/><rect x="170" y="54" width="10" height="9" fill="#000000"/><rect x="170" y="63" width="10" height="9" fill="#000000"/><rect x="180" y="54" width="10" height="9" fill="#73ceff"/><rect x="180" y="63" width="10" height="9" fill="#73ceff"/><rect x="100" y="81" width="10" height="9" fill="#73ceff"/><rect x="110" y="72" width="10" height="9" fill="#73ceff"/><rect x="110" y="81" width="10" height="9" fill="#73ceff"/><rect x="120" y="72" width="10" height="9" fill="#73ceff"/><rect x="120" y="81" width="10" height="9" fill="#000000"/><rect x="130" y="72" width="10" height="9" fill="#73ceff"/><rect x="130" y="81" width="10" height="9" fill="#000000"/><rect x="140" y="72" width="10" height="9" fill="#000000"/><rect x="140" y="81" width="10" height="9" fill="#f78c42"/><rect x="150" y="72" width="10" height="9" fill="#f78c42"/><rect x="150" y="81" width="10" height="9" fill="#f78c42"/><rect x="160" y="72" width="10" height="9" fill="#f78c42"/><rect x="160" y="81" width="10" height="9" fill="#f78c42"/><rect x="170" y="72" width="10" height="9" fill="#000000"/><rect x="170" y="81" width="10" height="9" fill="#d66342"/><rect x="180" y="72" width="10" height="9" fill="#73ceff"/><rect x="180" y="81" width="10" height="9" fill="#000000"/><rect x="190" y="72" width="10" height="9" fill="#73ceff"/><rect x="190" y="81" width="10" height="9" fill="#73ceff"/><rect x="200" y="81" width="10" height="9" fill="#73ceff"/><rect x="90" y="90" width="10" height="9" fill="#73ceff"/><rect x="90" y="99" width="10" height="9" fill="#73ceff"/><rect x="100" y="90" width="10" height="9" fill="#73ceff"/><rect x="100" y="99" width="10" height="9" fill="#000000"/><rect x="110" y="90" width="10" height="9" fill="#000000"/><rect x="110" y="99" width="10" height="9" fill="#ffffff"/><rect x="120" y="90" width="10" height="9" fill="#f78c42"/><rect x="120" y="99" width="10" height="9" fill="#f78c42"/><rect x="130" y="90" width="10" height="9" fill="#f78c42"/><rect x="130" y="99" width="10" height="9" fill="#f78c42"/><rect x="140" y="90" width="10" height="9" fill="#f78c42"/><rect x="140" y="99" width="10" height="9" fill="#f78c42"/><rect x="150" y="90" width="10" height="9" fill="#f78c42"/><rect x="150" y="99" width="10" height="9" fill="#f78c42"/><rect x="160" y="90" width="10" height="9" fill="#f78c42"/><rect x="160" y="99" width="10" height="9" fill="#f78c42"/><rect x="170" y="90" width="10" height="9" fill="#f78c42"/><rect x="170" y="99" width="10" height="9" fill="#f78c42"/><rect x="180" y="90" width="10" height="9" fill="#d66342"/><rect x="180" y="99" width="10" height="9" fill="#f78c42"/><rect x="190" y="90" width="10" height="9" fill="#000000"/><rect x="190" y="99" width="10" height="9" fill="#000000"/><rect x="200" y="90" width="10" height="9" fill="#73ceff"/><rect x="200" y="99" width="10" height="9" fill="#73ceff"/><rect x="210" y="99" width="10" height="9" fill="#73ceff"/><rect x="80" y="117" width="10" height="9" fill="#73ceff"/><rect x="90" y="108" width="10" height="9" fill="#73ceff"/><rect x="90" y="117" width="10" height="9" fill="#73ceff"/><rect x="100" y="108" width="10" height="9" fill="#000000"/><rect x="100" y="117" width="10" height="9" fill="#000000"/><rect x="110" y="108" width="10" height="9" fill="#bdbdbd"/><rect x="110" y="117" width="10" height="9" fill="#ffffff"/><rect x="120" y="108" width="10" height="9" fill="#427bd6"/><rect x="120" y="117" width="10" height="9" fill="#427bd6"/><rect x="130" y="108" width="10" height="9" fill="#f78c42"/><rect x="130" y="117" width="10" height="9" fill="#f78c42"/><rect x="140" y="108" width="10" height="9" fill="#f78c42"/><rect x="140" y="117" width="10" height="9" fill="#f78c42"/><rect x="150" y="108" width="10" height="9" fill="#f78c42"/><rect x="150" y="117" width="10" height="9" fill="#bdbdbd"/><rect x="160" y="108" width="10" height="9" fill="#ffffff"/><rect x="160" y="117" width="10" height="9" fill="#427bd6"/><rect x="170" y="108" width="10" height="9" fill="#ffffff"/><rect x="170" y="117" width="10" height="9" fill="#ffffff"/><rect x="180" y="108" width="10" height="9" fill="#f78c42"/><rect x="180" y="117" width="10" height="9" fill="#d66342"/><rect x="190" y="108" width="10" height="9" fill="#d66342"/><rect x="190" y="117" width="10" height="9" fill="#d66342"/><rect x="200" y="108" width="10" height="9" fill="#000000"/><rect x="200" y="117" width="10" height="9" fill="#000000"/><rect x="210" y="108" width="10" height="9" fill="#73ceff"/><rect x="210" y="117" width="10" height="9" fill="#73ceff"/><rect x="40" y="135" width="10" height="9" fill="#73ceff"/><rect x="50" y="135" width="10" height="9" fill="#73ceff"/><rect x="60" y="126" width="10" height="9" fill="#73ceff"/><rect x="60" y="135" width="10" height="9" fill="#ffffff"/><rect x="70" y="126" width="10" height="9" fill="#b5deff"/><rect x="70" y="135" width="10" height="9" fill="#ffffff"/><rect x="80" y="126" width="10" height="9" fill="#ffffff"/><rect x="80" y="135" width="10" height="9" fill="#73ceff"/><rect x="90" y="126" width="10" height="9" fill="#73ceff"/><rect x="90" y="135" width="10" height="9" fill="#73ceff"/><rect x="100" y="126" width="10" height="9" fill="#73ceff"/><rect x="110" y="126" width="10" height="9" fill="#000000"/><rect x="110" y="135" width="10" height="9" fill="#73ceff"/><rect x="120" y="126" width="10" height="9" fill="#f78c42"/><rect x="120" y="135" width="10" height="9" fill="#000000"/><rect x="130" y="126" width="10" height="9" fill="#414141"/><rect x="130" y="135" width="10" height="9" fill="#000000"/><rect x="140" y="126" width="10" height="9" fill="#414141"/><rect x="140" y="135" width="10" height="9" fill="#d66342"/><rect x="150" y="126" width="10" height="9" fill="#ffffff"/><rect x="150" y="135" width="10" height="9" fill="#ffffff"/><rect x="160" y="126" width="10" height="9" fill="#427bd6"/><rect x="160" y="135" width="10" height="9" fill="#ffffff"/><rect x="170" y="126" width="10" height="9" fill="#bdbdbd"/><rect x="170" y="135" width="10" height="9" fill="#d66342"/><rect x="180" y="126" width="10" height="9" fill="#d66342"/><rect x="180" y="135" width="10" height="9" fill="#d66342"/><rect x="190" y="126" width="10" height="9" fill="#b54a42"/><rect x="190" y="135" width="10" height="9" fill="#000000"/><rect x="200" y="126" width="10" height="9" fill="#000000"/><rect x="200" y="135" width="10" height="9" fill="#b5deff"/><rect x="210" y="126" width="10" height="9" fill="#73ceff"/><rect x="210" y="135" width="10" height="9" fill="#73ceff"/><rect x="40" y="153" width="10" height="9" fill="#73ceff"/><rect x="50" y="144" width="10" height="9" fill="#73ceff"/><rect x="50" y="153" width="10" height="9" fill="#73ceff"/><rect x="60" y="144" width="10" height="9" fill="#73ceff"/><rect x="60" y="153" width="10" height="9" fill="#ffffff"/><rect x="70" y="144" width="10" height="9" fill="#73ceff"/><rect x="70" y="153" width="10" height="9" fill="#73ceff"/><rect x="80" y="153" width="10" height="9" fill="#73ceff"/><rect x="120" y="144" width="10" height="9" fill="#73ceff"/><rect x="120" y="153" width="10" height="9" fill="#73ceff"/><rect x="130" y="144" width="10" height="9" fill="#73ceff"/><rect x="130" y="153" width="10" height="9" fill="#000000"/><rect x="140" y="144" width="10" height="9" fill="#000000"/><rect x="140" y="153" width="10" height="9" fill="#f78c42"/><rect x="150" y="144" width="10" height="9" fill="#d66342"/><rect x="150" y="153" width="10" height="9" fill="#f78c42"/><rect x="160" y="144" width="10" height="9" fill="#414141"/><rect x="160" y="153" width="10" height="9" fill="#d66342"/><rect x="170" y="144" width="10" height="9" fill="#414141"/><rect x="170" y="153" width="10" height="9" fill="#000000"/><rect x="180" y="144" width="10" height="9" fill="#000000"/><rect x="180" y="153" width="10" height="9" fill="#73ceff"/><rect x="190" y="144" width="10" height="9" fill="#73ceff"/><rect x="190" y="153" width="10" height="9" fill="#73ceff"/><rect x="200" y="144" width="10" height="9" fill="#73ceff"/><rect x="200" y="153" width="10" height="9" fill="#73ceff"/><rect x="210" y="144" width="10" height="9" fill="#ffffff"/><rect x="210" y="153" width="10" height="9" fill="#b5deff"/><rect x="220" y="144" width="10" height="9" fill="#73ceff"/><rect x="220" y="153" width="10" height="9" fill="#ffffff"/><rect x="230" y="153" width="10" height="9" fill="#73ceff"/><rect x="10" y="171" width="10" height="9" fill="#73ceff"/><rect x="20" y="162" width="10" height="9" fill="#73ceff"/><rect x="20" y="171" width="10" height="9" fill="#b5deff"/><rect x="30" y="162" width="10" height="9" fill="#73ceff"/><rect x="30" y="171" width="10" height="9" fill="#ffffff"/><rect x="40" y="162" width="10" height="9" fill="#b5deff"/><rect x="40" y="171" width="10" height="9" fill="#ffffff"/><rect x="50" y="162" width="10" height="9" fill="#ffffff"/><rect x="50" y="171" width="10" height="9" fill="#b5deff"/><rect x="60" y="162" width="10" height="9" fill="#ffffff"/><rect x="60" y="171" width="10" height="9" fill="#b5deff"/><rect x="70" y="162" width="10" height="9" fill="#ffffff"/><rect x="70" y="171" width="10" height="9" fill="#73ceff"/><rect x="80" y="162" width="10" height="9" fill="#73ceff"/><rect x="80" y="171" width="10" height="9" fill="#73ceff"/><rect x="90" y="171" width="10" height="9" fill="#73ceff"/><rect x="120" y="162" width="10" height="9" fill="#73ceff"/><rect x="130" y="162" width="10" height="9" fill="#000000"/><rect x="130" y="171" width="10" height="9" fill="#73ceff"/><rect x="140" y="162" width="10" height="9" fill="#b54a42"/><rect x="140" y="171" width="10" height="9" fill="#000000"/><rect x="150" y="162" width="10" height="9" fill="#d66342"/><rect x="150" y="171" width="10" height="9" fill="#000000"/><rect x="160" y="162" width="10" height="9" fill="#b54a42"/><rect x="160" y="171" width="10" height="9" fill="#000000"/><rect x="170" y="162" width="10" height="9" fill="#000000"/><rect x="170" y="171" width="10" height="9" fill="#73ceff"/><rect x="180" y="162" width="10" height="9" fill="#73ceff"/><rect x="180" y="171" width="10" height="9" fill="#73ceff"/><rect x="200" y="171" width="10" height="9" fill="#73ceff"/><rect x="210" y="162" width="10" height="9" fill="#73ceff"/><rect x="210" y="171" width="10" height="9" fill="#73ceff"/><rect x="220" y="162" width="10" height="9" fill="#b5deff"/><rect x="220" y="171" width="10" height="9" fill="#73ceff"/><rect x="230" y="162" width="10" height="9" fill="#ffffff"/><rect x="230" y="171" width="10" height="9" fill="#b5deff"/><rect x="240" y="162" width="10" height="9" fill="#73ceff"/><rect x="240" y="171" width="10" height="9" fill="#b5deff"/><rect x="250" y="162" width="10" height="9" fill="#73ceff"/><rect x="250" y="171" width="10" height="9" fill="#73ceff"/><rect x="260" y="171" width="10" height="9" fill="#73ceff"/><rect x="0" y="180" width="10" height="9" fill="#73ceff"/><rect x="10" y="180" width="10" height="9" fill="#73ceff"/><rect x="20" y="180" width="10" height="9" fill="#73ceff"/><rect x="30" y="180" width="10" height="9" fill="#73ceff"/><rect x="40" y="180" width="10" height="9" fill="#73ceff"/><rect x="50" y="180" width="10" height="9" fill="#73ceff"/><rect x="60" y="180" width="10" height="9" fill="#73ceff"/><rect x="140" y="180" width="10" height="9" fill="#73ceff"/><rect x="140" y="189" width="10" height="9" fill="#73ceff"/><rect x="150" y="180" width="10" height="9" fill="#73ceff"/><rect x="150" y="189" width="10" height="9" fill="#73ceff"/><rect x="160" y="180" width="10" height="9" fill="#73ceff"/><rect x="160" y="189" width="10" height="9" fill="#73ceff"/><rect x="170" y="180" width="10" height="9" fill="#73ceff"/><rect x="190" y="180" width="10" height="9" fill="#73ceff"/><rect x="190" y="189" width="10" height="9" fill="#73ceff"/><rect x="200" y="180" width="10" height="9" fill="#b5deff"/><rect x="200" y="189" width="10" height="9" fill="#ffffff"/><rect x="210" y="180" width="10" height="9" fill="#b5deff"/><rect x="210" y="189" width="10" height="9" fill="#ffffff"/><rect x="220" y="180" width="10" height="9" fill="#ffffff"/><rect x="220" y="189" width="10" height="9" fill="#ffffff"/><rect x="230" y="180" width="10" height="9" fill="#73ceff"/><rect x="230" y="189" width="10" height="9" fill="#b5deff"/><rect x="240" y="189" width="10" height="9" fill="#73ceff"/><rect x="150" y="198" width="10" height="9" fill="#73ceff"/><rect x="150" y="207" width="10" height="9" fill="#73ceff"/><rect x="200" y="198" width="10" height="9" fill="#73ceff"/><rect x="210" y="198" width="10" height="9" fill="#b5deff"/><rect x="210" y="207" width="10" height="9" fill="#73ceff"/><rect x="220" y="198" width="10" height="9" fill="#ffffff"/><rect x="220" y="207" width="10" height="9" fill="#73ceff"/><rect x="230" y="198" width="10" height="9" fill="#ffffff"/><rect x="230" y="207" width="10" height="9" fill="#b5deff"/><rect x="240" y="198" width="10" height="9" fill="#73ceff"/><rect x="240" y="207" width="10" height="9" fill="#ffffff"/><rect x="250" y="207" width="10" height="9" fill="#73ceff"/><rect x="230" y="216" width="10" height="9" fill="#73ceff"/><rect x="240" y="216" width="10" height="9" fill="#b5deff"/><rect x="240" y="225" width="10" height="9" fill="#73ceff"/><rect x="250" y="216" width="10" height="9" fill="#ffffff"/><rect x="250" y="225" width="10" height="9" fill="#73ceff"/><rect x="260" y="216" width="10" height="9" fill="#73ceff"/><rect x="260" y="225" width="10" height="9" fill="#73ceff"/><rect x="260" y="234" width="10" height="9" fill="#73ceff"/><rect x="270" y="234" width="10" height="9" fill="#73ceff"/></g>
  <g font-family="ui-monospace, SFMono-Regular, Menlo, Consolas, monospace">
    <text x="365" y="137" fill="#f8fafc" font-size="46" font-weight="800">POKÉDEX</text>
    <text x="365" y="187" fill="#73ceff" font-size="46" font-weight="800">CLI</text>
    <text x="368" y="226" fill="#cbd5e1" font-size="15">catch · train · evolve</text>
  </g>
</svg>
