<svg xmlns="http://www.w3.org/2000/svg" width="720" height="320" viewBox="0 0 720 320" role="img" aria-labelledby="title desc">
  <title id="title">POKÉDEX CLI</title>
  <desc id="desc">Generated from Krabby sprite: charizard, form=mega-x, shiny=False</desc>
  <defs>
    <linearGradient id="card" x1="0" y1="0" x2="1" y2="1">
      <stop offset="0" stop-color="#121c30"/>
      <stop offset="1" stop-color="#05131d"/>
    </linearGradient>
    <filter id="glow"><feGaussianBlur stdDeviation="7"/></filter>
  </defs>
  <rect width="720" height="320" rx="28" fill="url(#card)"/>
  <circle cx="171" cy="160" r="116" fill="#3a5a9c" opacity=".14" filter="url(#glow)"/>
  <g transform="translate(28 73.345) scale(0.715)" shape-rendering="crispEdges"><rect x="130" y="9" width="10" height="9" fill="#000000"/><rect x="140" y="0" width="10" height="9" fill="#000000"/><rect x="140" y="9" width="10" height="9" fill="#000000"/><rect x="150" y="0" width="10" height="9" fill="#000000"/><rect x="150" y="9" width="10" height="9" fill="#414141"/><rect x="160" y="9" width="10" height="9" fill="#000000"/><rect x="280" y="9" width="10" height="9" fill="#000000"/><rect x="290" y="9" width="10" height="9" fill="#000000"/><rect x="300" y="9" width="10" height="9" fill="#000000"/><rect x="310" y="9" width="10" height="9" fill="#000000"/><rect x="120" y="18" width="10" height="9" fill="#000000"/><rect x="120" y="27" width="10" height="9" fill="#000000"/><rect x="130" y="18" width="10" height="9" fill="#63635a"/><rect x="130" y="27" width="10" height="9" fill="#63635a"/><rect x="140" y="18" width="10" height="9" fill="#63635a"/><rect x="140" y="27" width="10" height="9" fill="#414141"/><rect x="150" y="18" width="10" height="9" fill="#414141"/><rect x="150" y="27" width="10" height="9" fill="#000000"/><rect x="160" y="18" width="10" height="9" fill="#414141"/><rect x="160" y="27" width="10" height="9" fill="#414141"/><rect x="170" y="18" width="10" height="9" fill="#000000"/><rect x="170" y="27" width="10" height="9" fill="#414141"/><rect x="180" y="18" width="10" height="9" fill="#000000"/><rect x="180" y="27" width="10" height="9" fill="#414141"/><rect x="190" y="27" width="10" height="9" fill="#000000"/><rect x="200" y="18" width="10" height="9" fill="#000000"/><rect x="200" y="27" width="10" height="9" fill="#7b7b73"/><rect x="210" y="18" width="10" height="9" fill="#000000"/><rect x="210" y="27" width="10" height="9" fill="#7b7b73"/><rect x="220" y="27" width="10" height="9" fill="#000000"/><rect x="230" y="27" width="10" height="9" fill="#000000"/><rect x="240" y="18" width="10" height="9" fill="#000000"/><rect x="240" y="27" width="10" height="9" fill="#7b7b73"/><rect x="250" y="18" width="10" height="9" fill="#000000"/><rect x="250" y="27" width="10" height="9" fill="#7b7b73"/><rect x="260" y="18" width="10" height="9" fill="#000000"/><rect x="260" y="27" width="10" height="9" fill="#7b7b73"/><rect x="270" y="18" width="10" height="9" fill="#000000"/><rect x="270" y="27" width="10" height="9" fill="#7b7b73"/><rect x="280" y="18" width="10" height="9" fill="#7b7b73"/><rect x="280" y="27" width="10" height="9" fill="#3a5a9c"/><rect x="290" y="18" width="10" height="9" fill="#7b7b73"/><rect x="290" y="27" width="10" height="9" fill="#3a5a9c"/><rect x="300" y="18" width="10" height="9" fill="#7b7b73"/><rect x="300" y="27" width="10" height="9" fill="#000000"/><rect x="310" y="18" width="10" height="9" fill="#7b7b73"/><rect x="310" y="27" width="10" height="9" fill="#000000"/><rect x="320" y="18" width="10" height="9" fill="#000000"/><rect x="30" y="45" width="10" height="9" fill="#3a5a9c"/><rect x="40" y="45" width="10" height="9" fill="#3a5a9c"/><rect x="80" y="45" width="10" height="9" fill="#000000"/><rect x="120" y="36" width="10" height="9" fill="#000000"/><rect x="130" y="36" width="10" height="9" fill="#000000"/><rect x="140" y="36" width="10" height="9" fill="#000000"/><rect x="150" y="36" width="10" height="9" fill="#414141"/><rect x="150" y="45" width="10" height="9" fill="#000000"/><rect x="160" y="36" width="10" height="9" fill="#414141"/><rect x="160" y="45" width="10" height="9" fill="#414141"/><rect x="170" y="36" width="10" height="9" fill="#414141"/><rect x="170" y="45" width="10" height="9" fill="#414141"/><rect x="180" y="36" width="10" height="9" fill="#000000"/><rect x="180" y="45" width="10" height="9" fill="#000000"/><rect x="190" y="36" width="10" height="9" fill="#7b7b73"/><rect x="190" y="45" width="10" height="9" fill="#000000"/><rect x="200" y="36" width="10" height="9" fill="#7b7b73"/><rect x="200" y="45" width="10" height="9" fill="#7b7b73"/><rect x="210" y="36" width="10" height="9" fill="#7b7b73"/><rect x="210" y="45" width="10" height="9" fill="#414141"/><rect x="220" y="36" width="10" height="9" fill="#414141"/><rect x="220" y="45" width="10" height="9" fill="#7b7b73"/><rect x="230" y="36" width="10" height="9" fill="#7b7b73"/><rect x="230" y="45" width="10" height="9" fill="#7b7b73"/><rect x="240" y="36" width="10" height="9" fill="#7b7b73"/><rect x="240" y="45" width="10" height="9" fill="#3a5a9c"/><rect x="250" y="36" width="10" height="9" fill="#3a5a9c"/><rect x="250" y="45" width="10" height="9" fill="#4a84bd"/><rect x="260" y="36" width="10" height="9" fill="#3a5a9c"/><rect x="260" y="45" width="10" height="9" fill="#4a84bd"/><rect x="270" y="36" width="10" height="9" fill="#3a5a9c"/><rect x="270" y="45" width="10" height="9" fill="#4a84bd"/><rect x="280" y="36" width="10" height="9" fill="#4a84bd"/><rect x="280" y="45" width="10" height="9" fill="#4a84bd"/><rect x="290" y="36" width="10" height="9" fill="#000000"/><rect x="290" y="45" width="10" height="9" fill="#4a84bd"/><rect x="300" y="45" width="10" height="9" fill="#000000"/><rect x="310" y="45" width="10" height="9" fill="#000000"/><rect x="380" y="45" width="10" height="9" fill="#3a5a9c"/><rect x="20" y="54" width="10" height="9" fill="#3a5a9c"/><rect x="20" y="63" width="10" height="9" fill="#3a5a9c"/><rect x="30" y="54" width="10" height="9" fill="#3aadff"/><rect x="30" y="63" width="10" height="9" fill="#3aadff"/><rect x="40" y="54" width="10" height="9" fill="#3a5a9c"/><rect x="40" y="63" width="10" height="9" fill="#3aadff"/><rect x="50" y="63" width="10" height="9" fill="#3a5a9c"/><rect x="70" y="54" width="10" height="9" fill="#000000"/><rect x="70" y="63" width="10" height="9" fill="#000000"/><rect x="80" y="54" width="10" height="9" fill="#3aadff"/><rect x="80" y="63" width="10" height="9" fill="#3aadff"/><rect x="90" y="54" width="10" height="9" fill="#000000"/><rect x="90" y="63" width="10" height="9" fill="#000000"/><rect x="110" y="63" width="10" height="9" fill="#000000"/><rect x="120" y="63" width="10" height="9" fill="#000000"/><rect x="130" y="54" width="10" height="9" fill="#000000"/><rect x="130" y="63" width="10" height="9" fill="#3aadff"/><rect x="140" y="54" width="10" height="9" fill="#000000"/><rect x="140" y="63" width="10" height="9" fill="#000000"/><rect x="160" y="54" width="10" height="9" fill="#000000"/><rect x="160" y="63" width="10" height="9" fill="#000000"/><rect x="170" y="54" width="10" height="9" fill="#414141"/><rect x="170" y="63" width="10" height="9" fill="#3a5a9c"/><rect x="180" y="54" width="10" height="9" fill="#414141"/><rect x="180" y="63" width="10" height="9" fill="#3a5a9c"/><rect x="190" y="54" width="10" height="9" fill="#414141"/><rect x="190" y="63" width="10" height="9" fill="#414141"/><rect x="200" y="54" width="10" height="9" fill="#000000"/><rect x="200" y="63" width="10" height="9" fill="#414141"/><rect x="210" y="54" width="10" height="9" fill="#414141"/><rect x="210" y="63" width="10" height="9" fill="#000000"/><rect x="220" y="54" width="10" height="9" fill="#7b7b73"/><rect x="220" y="63" width="10" height="9" fill="#7b7b73"/><rect x="230" y="54" width="10" height="9" fill="#414141"/><rect x="230" y="63" width="10" height="9" fill="#414141"/><rect x="240" y="54" width="10" height="9" fill="#4a84bd"/><rect x="240" y="63" width="10" height="9" fill="#4a84bd"/><rect x="250" y="54" width="10" height="9" fill="#4a84bd"/><rect x="250" y="63" width="10" height="9" fill="#4a84bd"/><rect x="260" y="54" width="10" height="9" fill="#4a84bd"/><rect x="260" y="63" width="10" height="9" fill="#4a84bd"/><rect x="270" y="54" width="10" height="9" fill="#4a84bd"/><rect x="270" y="63" width="10" height="9" fill="#4a84bd"/><rect x="280" y="54" width="10" height="9" fill="#4a84bd"/><rect x="280" y="63" width="10" height="9" fill="#000000"/><rect x="290" y="54" width="10" height="9" fill="#4a84bd"/><rect x="290" y="63" width="10" height="9" fill="#000000"/><rect x="300" y="54" width="10" height="9" fill="#4a84bd"/><rect x="300" y="63" width="10" height="9" fill="#000000"/><rect x="310" y="54" width="10" height="9" fill="#4a84bd"/><rect x="310" y="63" width="10" height="9" fill="#000000"/><rect x="320" y="54" width="10" height="9" fill="#000000"/><rect x="350" y="63" width="10" height="9" fill="#3a5a9c"/><rect x="360" y="63" width="10" height="9" fill="#3a5a9c"/><rect x="370" y="54" width="10" height="9" fill="#3a5a9c"/><rect x="370" y="63" width="10" height="9" fill="#3aadff"/><rect x="380" y="54" width="10" height="9" fill="#6bceff"/><rect x="380" y="63" width="10" height="9" fill="#6bceff"/><rect x="390" y="54" width="10" height="9" fill="#3a5a9c"/><rect x="390" y="63" width="10" height="9" fill="#3a5a9c"/><rect x="20" y="81" width="10" height="9" fill="#3a5a9c"/><rect x="30" y="72" width="10" height="9" fill="#3a5a9c"/><rect x="30" y="81" width="10" height="9" fill="#a5e6ff"/><rect x="40" y="72" width="10" height="9" fill="#3aadff"/><rect x="40" y="81" width="10" height="9" fill="#3aadff"/><rect x="50" y="72" width="10" height="9" fill="#3a5a9c"/><rect x="50" y="81" width="10" height="9" fill="#3aadff"/><rect x="60" y="72" width="10" height="9" fill="#000000"/><rect x="60" y="81" width="10" height="9" fill="#000000"/><rect x="70" y="72" width="10" height="9" fill="#63635a"/><rect x="70" y="81" width="10" height="9" fill="#63635a"/><rect x="80" y="72" width="10" height="9" fill="#63635a"/><rect x="80" y="81" width="10" height="9" fill="#414141"/><rect x="90" y="72" width="10" height="9" fill="#000000"/><rect x="90" y="81" width="10" height="9" fill="#000000"/><rect x="100" y="81" width="10" height="9" fill="#000000"/><rect x="110" y="72" width="10" height="9" fill="#000000"/><rect x="110" y="81" width="10" height="9" fill="#7b7b73"/><rect x="120" y="72" width="10" height="9" fill="#3aadff"/><rect x="120" y="81" width="10" height="9" fill="#7b7b73"/><rect x="130" y="72" width="10" height="9" fill="#000000"/><rect x="130" y="81" width="10" height="9" fill="#414141"/><rect x="140" y="81" width="10" height="9" fill="#000000"/><rect x="150" y="81" width="10" height="9" fill="#3a5a9c"/><rect x="160" y="72" width="10" height="9" fill="#3a5a9c"/><rect x="160" y="81" width="10" height="9" fill="#3aadff"/><rect x="170" y="72" width="10" height="9" fill="#3aadff"/><rect x="170" y="81" width="10" height="9" fill="#3a5a9c"/><rect x="180" y="72" width="10" height="9" fill="#3a5a9c"/><rect x="180" y="81" width="10" height="9" fill="#414141"/><rect x="190" y="72" width="10" height="9" fill="#414141"/><rect x="190" y="81" width="10" height="9" fill="#414141"/><rect x="200" y="72" width="10" height="9" fill="#000000"/><rect x="200" y="81" width="10" height="9" fill="#000000"/><rect x="210" y="72" width="10" height="9" fill="#63635a"/><rect x="210" y="81" width="10" height="9" fill="#63635a"/><rect x="220" y="72" width="10" height="9" fill="#414141"/><rect x="220" y="81" width="10" height="9" fill="#414141"/><rect x="230" y="72" width="10" height="9" fill="#4a84bd"/><rect x="230" y="81" width="10" height="9" fill="#3a5a9c"/><rect x="240" y="72" width="10" height="9" fill="#4a84bd"/><rect x="240" y="81" width="10" height="9" fill="#3a5a9c"/><rect x="250" y="72" width="10" height="9" fill="#4a84bd"/><rect x="250" y="81" width="10" height="9" fill="#3a5a9c"/><rect x="260" y="72" width="10" height="9" fill="#3a5a9c"/><rect x="260" y="81" width="10" height="9" fill="#3a5a9c"/><rect x="270" y="72" width="10" height="9" fill="#3a5a9c"/><rect x="270" y="81" width="10" height="9" fill="#3a5a9c"/><rect x="280" y="72" width="10" height="9" fill="#3a5a9c"/><rect x="280" y="81" width="10" height="9" fill="#3a5a9c"/><rect x="290" y="72" width="10" height="9" fill="#000000"/><rect x="290" y="81" width="10" height="9" fill="#3a5a9c"/><rect x="300" y="81" width="10" height="9" fill="#000000"/><rect x="340" y="72" width="10" height="9" fill="#3a5a9c"/><rect x="340" y="81" width="10" height="9" fill="#3a5a9c"/><rect x="350" y="72" width="10" height="9" fill="#3aadff"/><rect x="350" y="81" width="10" height="9" fill="#a5e6ff"/><rect x="360" y="72" width="10" height="9" fill="#a5e6ff"/><rect x="360" y="81" width="10" height="9" fill="#3aadff"/><rect x="370" y="72" width="10" height="9" fill="#6bceff"/><rect x="370" y="81" width="10" height="9" fill="#3aadff"/><rect x="380" y="72" width="10" height="9" fill="#3a5a9c"/><rect x="380" y="81" width="10" height="9" fill="#3a5a9c"/><rect x="20" y="90" width="10" height="9" fill="#3a5a9c"/><rect x="30" y="90" width="10" height="9" fill="#3aadff"/><rect x="30" y="99" width="10" height="9" fill="#3a5a9c"/><rect x="40" y="90" width="10" height="9" fill="#a5e6ff"/><rect x="40" y="99" width="10" height="9" fill="#a5e6ff"/><rect x="50" y="90" width="10" height="9" fill="#000000"/><rect x="50" y="99" width="10" height="9" fill="#000000"/><rect x="60" y="90" width="10" height="9" fill="#414141"/><rect x="60" y="99" width="10" height="9" fill="#7b7b73"/><rect x="70" y="90" width="10" height="9" fill="#414141"/><rect x="70" y="99" width="10" height="9" fill="#7b7b73"/><rect x="80" y="90" width="10" height="9" fill="#7b7b73"/><rect x="80" y="99" width="10" height="9" fill="#7b7b73"/><rect x="90" y="90" width="10" height="9" fill="#414141"/><rect x="90" y="99" width="10" height="9" fill="#7b7b73"/><rect x="100" y="90" width="10" height="9" fill="#7b7b73"/><rect x="100" y="99" width="10" height="9" fill="#7b7b73"/><rect x="110" y="90" width="10" height="9" fill="#7b7b73"/><rect x="110" y="99" width="10" height="9" fill="#7b7b73"/><rect x="120" y="90" width="10" height="9" fill="#414141"/><rect x="120" y="99" width="10" height="9" fill="#414141"/><rect x="130" y="90" width="10" height="9" fill="#7b7b73"/><rect x="130" y="99" width="10" height="9" fill="#000000"/><rect x="140" y="90" width="10" height="9" fill="#000000"/><rect x="150" y="90" width="10" height="9" fill="#3a5a9c"/><rect x="150" y="99" width="10" height="9" fill="#3a5a9c"/><rect x="160" y="90" width="10" height="9" fill="#3aadff"/><rect x="160" y="99" width="10" height="9" fill="#3aadff"/><rect x="170" y="90" width="10" height="9" fill="#3a5a9c"/><rect x="170" y="99" width="10" height="9" fill="#3aadff"/><rect x="180" y="90" width="10" height="9" fill="#414141"/><rect x="180" y="99" width="10" height="9" fill="#3a5a9c"/><rect x="190" y="90" width="10" height="9" fill="#000000"/><rect x="190" y="99" width="10" height="9" fill="#63635a"/><rect x="200" y="90" width="10" height="9" fill="#63635a"/><rect x="200" y="99" width="10" height="9" fill="#63635a"/><rect x="210" y="90" width="10" height="9" fill="#63635a"/><rect x="210" y="99" width="10" height="9" fill="#414141"/><rect x="220" y="90" width="10" height="9" fill="#414141"/><rect x="220" y="99" width="10" height="9" fill="#3a5a9c"/><rect x="230" y="90" width="10" height="9" fill="#3a5a9c"/><rect x="230" y="99" width="10" height="9" fill="#3a5a9c"/><rect x="240" y="90" width="10" height="9" fill="#3a5a9c"/><rect x="240" y="99" width="10" height="9" fill="#3a5a9c"/><rect x="250" y="90" width="10" height="9" fill="#3a5a9c"/><rect x="250" y="99" width="10" height="9" fill="#3a5a9c"/><rect x="260" y="90" width="10" height="9" fill="#000000"/><rect x="260" y="99" width="10" height="9" fill="#000000"/><rect x="270" y="90" width="10" height="9" fill="#000000"/><rect x="280" y="90" width="10" height="9" fill="#3a5a9c"/><rect x="280" y="99" width="10" height="9" fill="#000000"/><rect x="290" y="90" width="10" height="9" fill="#3a5a9c"/><rect x="290" y="99" width="10" height="9" fill="#000000"/><rect x="300" y="90" width="10" height="9" fill="#3a5a9c"/><rect x="300" y="99" width="10" height="9" fill="#000000"/><rect x="310" y="90" width="10" height="9" fill="#000000"/><rect x="310" y="99" width="10" height="9" fill="#000000"/><rect x="350" y="90" width="10" height="9" fill="#3a5a9c"/><rect x="350" y="99" width="10" height="9" fill="#3a5a9c"/><rect x="360" y="90" width="10" height="9" fill="#6bceff"/><rect x="360" y="99" width="10" height="9" fill="#a5e6ff"/><rect x="370" y="90" width="10" height="9" fill="#3a5a9c"/><rect x="370" y="99" width="10" height="9" fill="#3a5a9c"/><rect x="20" y="117" width="10" height="9" fill="#3a5a9c"/><rect x="30" y="117" width="10" height="9" fill="#3a5a9c"/><rect x="40" y="108" width="10" height="9" fill="#000000"/><rect x="40" y="117" width="10" height="9" fill="#000000"/><rect x="50" y="108" width="10" height="9" fill="#7b7b73"/><rect x="50" y="117" width="10" height="9" fill="#7b7b73"/><rect x="60" y="108" width="10" height="9" fill="#7b7b73"/><rect x="60" y="117" width="10" height="9" fill="#7b7b73"/><rect x="70" y="108" width="10" height="9" fill="#7b7b73"/><rect x="70" y="117" width="10" height="9" fill="#7b7b73"/><rect x="80" y="108" width="10" height="9" fill="#7b7b73"/><rect x="80" y="117" width="10" height="9" fill="#7b7b73"/><rect x="90" y="108" width="10" height="9" fill="#7b7b73"/><rect x="90" y="117" width="10" height="9" fill="#63635a"/><rect x="100" y="108" width="10" height="9" fill="#63635a"/><rect x="100" y="117" width="10" height="9" fill="#ffffff"/><rect x="110" y="108" width="10" height="9" fill="#7b7b73"/><rect x="110" y="117" width="10" height="9" fill="#63635a"/><rect x="120" y="108" width="10" height="9" fill="#63635a"/><rect x="120" y="117" width="10" height="9" fill="#63635a"/><rect x="130" y="108" width="10" height="9" fill="#000000"/><rect x="130" y="117" width="10" height="9" fill="#63635a"/><rect x="140" y="108" width="10" height="9" fill="#3a5a9c"/><rect x="140" y="117" width="10" height="9" fill="#3a5a9c"/><rect x="150" y="108" width="10" height="9" fill="#3aadff"/><rect x="150" y="117" width="10" height="9" fill="#a5e6ff"/><rect x="160" y="108" width="10" height="9" fill="#3aadff"/><rect x="160" y="117" width="10" height="9" fill="#3aadff"/><rect x="170" y="108" width="10" height="9" fill="#3aadff"/><rect x="170" y="117" width="10" height="9" fill="#3a5a9c"/><rect x="180" y="108" width="10" height="9" fill="#3a5a9c"/><rect x="180" y="117" width="10" height="9" fill="#7b7b73"/><rect x="190" y="108" width="10" height="9" fill="#63635a"/><rect x="190" y="117" width="10" height="9" fill="#7b7b73"/><rect x="200" y="108" width="10" height="9" fill="#414141"/><rect x="200" y="117" width="10" height="9" fill="#414141"/><rect x="210" y="108" width="10" height="9" fill="#3aadff"/><rect x="210" y="117" width="10" height="9" fill="#7b7b73"/><rect x="220" y="108" width="10" height="9" fill="#414141"/><rect x="220" y="117" width="10" height="9" fill="#414141"/><rect x="230" y="108" width="10" height="9" fill="#3a5a9c"/><rect x="230" y="117" width="10" height="9" fill="#414141"/><rect x="240" y="108" width="10" height="9" fill="#3a5a9c"/><rect x="240" y="117" width="10" height="9" fill="#414141"/><rect x="250" y="108" width="10" height="9" fill="#3a5a9c"/><rect x="250" y="117" width="10" height="9" fill="#3a5a9c"/><rect x="260" y="108" width="10" height="9" fill="#3a5a9c"/><rect x="260" y="117" width="10" height="9" fill="#3a5a9c"/><rect x="270" y="108" width="10" height="9" fill="#000000"/><rect x="270" y="117" width="10" height="9" fill="#000000"/><rect x="340" y="108" width="10" height="9" fill="#3a5a9c"/><rect x="340" y="117" width="10" height="9" fill="#3a5a9c"/><rect x="350" y="108" width="10" height="9" fill="#6bceff"/><rect x="350" y="117" width="10" height="9" fill="#a5e6ff"/><rect x="360" y="108" width="10" height="9" fill="#a5e6ff"/><rect x="360" y="117" width="10" height="9" fill="#a5e6ff"/><rect x="370" y="108" width="10" height="9" fill="#3aadff"/><rect x="370" y="117" width="10" height="9" fill="#6bceff"/><rect x="380" y="108" width="10" height="9" fill="#3a5a9c"/><rect x="380" y="117" width="10" height="9" fill="#3a5a9c"/><rect x="0" y="135" width="10" height="9" fill="#3a5a9c"/><rect x="10" y="126" width="10" height="9" fill="#3a5a9c"/><rect x="10" y="135" width="10" height="9" fill="#a5e6ff"/><rect x="20" y="126" width="10" height="9" fill="#3aadff"/><rect x="20" y="135" width="10" height="9" fill="#a5e6ff"/><rect x="30" y="126" width="10" height="9" fill="#3aadff"/><rect x="30" y="135" width="10" height="9" fill="#000000"/><rect x="40" y="126" width="10" height="9" fill="#000000"/><rect x="40" y="135" width="10" height="9" fill="#7b7b73"/><rect x="50" y="126" width="10" height="9" fill="#63635a"/><rect x="50" y="135" width="10" height="9" fill="#7b7b73"/><rect x="60" y="126" width="10" height="9" fill="#7b7b73"/><rect x="60" y="135" width="10" height="9" fill="#63635a"/><rect x="70" y="126" width="10" height="9" fill="#414141"/><rect x="70" y="135" width="10" height="9" fill="#63635a"/><rect x="80" y="126" width="10" height="9" fill="#7b7b73"/><rect x="80" y="135" width="10" height="9" fill="#000000"/><rect x="90" y="126" width="10" height="9" fill="#c54a3a"/><rect x="90" y="135" width="10" height="9" fill="#c54a3a"/><rect x="100" y="126" width="10" height="9" fill="#ffffff"/><rect x="100" y="135" width="10" height="9" fill="#63635a"/><rect x="110" y="126" width="10" height="9" fill="#63635a"/><rect x="110" y="135" width="10" height="9" fill="#63635a"/><rect x="120" y="126" width="10" height="9" fill="#3a5a9c"/><rect x="120" y="135" width="10" height="9" fill="#3aadff"/><rect x="130" y="126" width="10" height="9" fill="#3a5a9c"/><rect x="130" y="135" width="10" height="9" fill="#a5e6ff"/><rect x="140" y="126" width="10" height="9" fill="#3aadff"/><rect x="140" y="135" width="10" height="9" fill="#a5e6ff"/><rect x="150" y="126" width="10" height="9" fill="#a5e6ff"/><rect x="150" y="135" width="10" height="9" fill="#3aadff"/><rect x="160" y="126" width="10" height="9" fill="#3a5a9c"/><rect x="160" y="135" width="10" height="9" fill="#3a5a9c"/><rect x="170" y="126" width="10" height="9" fill="#414141"/><rect x="170" y="135" width="10" height="9" fill="#414141"/><rect x="180" y="126" width="10" height="9" fill="#414141"/><rect x="180" y="135" width="10" height="9" fill="#3aadff"/><rect x="190" y="126" width="10" height="9" fill="#7b7b73"/><rect x="190" y="135" width="10" height="9" fill="#7b7b73"/><rect x="200" y="126" width="10" height="9" fill="#7b7b73"/><rect x="200" y="135" width="10" height="9" fill="#414141"/><rect x="210" y="126" width="10" height="9" fill="#7b7b73"/><rect x="210" y="135" width="10" height="9" fill="#7b7b73"/><rect x="220" y="126" width="10" height="9" fill="#7b7b73"/><rect x="220" y="135" width="10" height="9" fill="#7b7b73"/><rect x="230" y="126" width="10" height="9" fill="#414141"/><rect x="230" y="135" width="10" height="9" fill="#414141"/><rect x="240" y="126" width="10" height="9" fill="#63635a"/><rect x="240" y="135" width="10" height="9" fill="#63635a"/><rect x="250" y="126" width="10" height="9" fill="#414141"/><rect x="250" y="135" width="10" height="9" fill="#63635a"/><rect x="260" y="126" width="10" height="9" fill="#3a5a9c"/><rect x="260" y="135" width="10" height="9" fill="#000000"/><rect x="270" y="126" width="10" height="9" fill="#000000"/><rect x="340" y="135" width="10" height="9" fill="#000000"/><rect x="350" y="126" width="10" height="9" fill="#3a5a9c"/><rect x="350" y="135" width="10" height="9" fill="#7b7b73"/><rect x="360" y="126" width="10" height="9" fill="#6bceff"/><rect x="360" y="135" width="10" height="9" fill="#000000"/><rect x="370" y="126" width="10" height="9" fill="#3a5a9c"/><rect x="0" y="144" width="10" height="9" fill="#3a5a9c"/><rect x="10" y="144" width="10" height="9" fill="#3aadff"/><rect x="10" y="153" width="10" height="9" fill="#3a5a9c"/><rect x="20" y="144" width="10" height="9" fill="#000000"/><rect x="20" y="153" width="10" height="9" fill="#000000"/><rect x="30" y="144" width="10" height="9" fill="#7b7b73"/><rect x="30" y="153" width="10" height="9" fill="#7b7b73"/><rect x="40" y="144" width="10" height="9" fill="#7b7b73"/><rect x="40" y="153" width="10" height="9" fill="#7b7b73"/><rect x="50" y="144" width="10" height="9" fill="#7b7b73"/><rect x="50" y="153" width="10" height="9" fill="#414141"/><rect x="60" y="144" width="10" height="9" fill="#7b7b73"/><rect x="60" y="153" width="10" height="9" fill="#414141"/><rect x="70" y="144" width="10" height="9" fill="#7b7b73"/><rect x="70" y="153" width="10" height="9" fill="#7b7b73"/><rect x="80" y="144" width="10" height="9" fill="#7b7b73"/><rect x="80" y="153" width="10" height="9" fill="#63635a"/><rect x="90" y="144" width="10" height="9" fill="#63635a"/><rect x="90" y="153" width="10" height="9" fill="#414141"/><rect x="100" y="144" width="10" height="9" fill="#63635a"/><rect x="100" y="153" width="10" height="9" fill="#414141"/><rect x="110" y="144" width="10" height="9" fill="#3aadff"/><rect x="110" y="153" width="10" height="9" fill="#a5e6ff"/><rect x="120" y="144" width="10" height="9" fill="#a5e6ff"/><rect x="120" y="153" width="10" height="9" fill="#a5e6ff"/><rect x="130" y="144" width="10" height="9" fill="#3aadff"/><rect x="130" y="153" width="10" height="9" fill="#3a5a9c"/><rect x="140" y="144" width="10" height="9" fill="#3a5a9c"/><rect x="140" y="153" width="10" height="9" fill="#ffffff"/><rect x="150" y="144" width="10" height="9" fill="#3a5a9c"/><rect x="150" y="153" width="10" height="9" fill="#000000"/><rect x="160" y="144" width="10" height="9" fill="#3a5a9c"/><rect x="160" y="153" width="10" height="9" fill="#73b5de"/><rect x="170" y="144" width="10" height="9" fill="#9cdeff"/><rect x="170" y="153" width="10" height="9" fill="#9cdeff"/><rect x="180" y="144" width="10" height="9" fill="#414141"/><rect x="180" y="153" width="10" height="9" fill="#9cdeff"/><rect x="190" y="144" width="10" height="9" fill="#414141"/><rect x="190" y="153" width="10" height="9" fill="#9cdeff"/><rect x="200" y="144" width="10" height="9" fill="#9cdeff"/><rect x="200" y="153" width="10" height="9" fill="#414141"/><rect x="210" y="144" width="10" height="9" fill="#414141"/><rect x="210" y="153" width="10" height="9" fill="#414141"/><rect x="220" y="144" width="10" height="9" fill="#7b7b73"/><rect x="220" y="153" width="10" height="9" fill="#7b7b73"/><rect x="230" y="144" width="10" height="9" fill="#7b7b73"/><rect x="230" y="153" width="10" height="9" fill="#414141"/><rect x="240" y="144" width="10" height="9" fill="#414141"/><rect x="240" y="153" width="10" height="9" fill="#63635a"/><rect x="250" y="144" width="10" height="9" fill="#63635a"/><rect x="250" y="153" width="10" height="9" fill="#63635a"/><rect x="260" y="144" width="10" height="9" fill="#63635a"/><rect x="260" y="153" width="10" height="9" fill="#63635a"/><rect x="270" y="144" width="10" height="9" fill="#000000"/><rect x="270" y="153" width="10" height="9" fill="#414141"/><rect x="280" y="144" width="10" height="9" fill="#000000"/><rect x="280" y="153" width="10" height="9" fill="#63635a"/><rect x="290" y="153" width="10" height="9" fill="#000000"/><rect x="300" y="153" width="10" height="9" fill="#000000"/><rect x="310" y="153" width="10" height="9" fill="#000000"/><rect x="320" y="144" width="10" height="9" fill="#000000"/><rect x="320" y="153" width="10" height="9" fill="#7b7b73"/><rect x="330" y="144" width="10" height="9" fill="#000000"/><rect x="330" y="153" width="10" height="9" fill="#7b7b73"/><rect x="340" y="144" width="10" height="9" fill="#7b7b73"/><rect x="340" y="153" width="10" height="9" fill="#7b7b73"/><rect x="350" y="144" width="10" height="9" fill="#63635a"/><rect x="350" y="153" width="10" height="9" fill="#000000"/><rect x="360" y="144" width="10" height="9" fill="#000000"/><rect x="30" y="162" width="10" height="9" fill="#000000"/><rect x="40" y="162" width="10" height="9" fill="#63635a"/><rect x="40" y="171" width="10" height="9" fill="#000000"/><rect x="50" y="162" width="10" height="9" fill="#7b7b73"/><rect x="50" y="171" width="10" height="9" fill="#000000"/><rect x="60" y="162" width="10" height="9" fill="#63635a"/><rect x="60" y="171" width="10" height="9" fill="#ffffff"/><rect x="70" y="162" width="10" height="9" fill="#414141"/><rect x="70" y="171" width="10" height="9" fill="#000000"/><rect x="80" y="162" width="10" height="9" fill="#000000"/><rect x="80" y="171" width="10" height="9" fill="#3a5a9c"/><rect x="90" y="162" width="10" height="9" fill="#a5e6ff"/><rect x="90" y="171" width="10" height="9" fill="#3aadff"/><rect x="100" y="162" width="10" height="9" fill="#a5e6ff"/><rect x="100" y="171" width="10" height="9" fill="#3aadff"/><rect x="110" y="162" width="10" height="9" fill="#3aadff"/><rect x="110" y="171" width="10" height="9" fill="#3a5a9c"/><rect x="120" y="162" width="10" height="9" fill="#3aadff"/><rect x="120" y="171" width="10" height="9" fill="#3a5a9c"/><rect x="130" y="162" width="10" height="9" fill="#3a5a9c"/><rect x="140" y="162" width="10" height="9" fill="#000000"/><rect x="140" y="171" width="10" height="9" fill="#000000"/><rect x="150" y="162" width="10" height="9" fill="#63635a"/><rect x="150" y="171" width="10" height="9" fill="#63635a"/><rect x="160" y="162" width="10" height="9" fill="#414141"/><rect x="160" y="171" width="10" height="9" fill="#63635a"/><rect x="170" y="162" width="10" height="9" fill="#73b5de"/><rect x="170" y="171" width="10" height="9" fill="#63635a"/><rect x="180" y="162" width="10" height="9" fill="#9cdeff"/><rect x="180" y="171" width="10" height="9" fill="#414141"/><rect x="190" y="162" width="10" height="9" fill="#414141"/><rect x="190" y="171" width="10" height="9" fill="#ffffff"/><rect x="200" y="162" width="10" height="9" fill="#414141"/><rect x="200" y="171" width="10" height="9" fill="#7b7b73"/><rect x="210" y="162" width="10" height="9" fill="#7b7b73"/><rect x="210" y="171" width="10" height="9" fill="#7b7b73"/><rect x="220" y="162" width="10" height="9" fill="#7b7b73"/><rect x="220" y="171" width="10" height="9" fill="#414141"/><rect x="230" y="162" width="10" height="9" fill="#414141"/><rect x="230" y="171" width="10" height="9" fill="#7b7b73"/><rect x="240" y="162" width="10" height="9" fill="#7b7b73"/><rect x="240" y="171" width="10" height="9" fill="#7b7b73"/><rect x="250" y="162" width="10" height="9" fill="#63635a"/><rect x="250" y="171" width="10" height="9" fill="#7b7b73"/><rect x="260" y="162" width="10" height="9" fill="#63635a"/><rect x="260" y="171" width="10" height="9" fill="#63635a"/><rect x="270" y="162" width="10" height="9" fill="#63635a"/><rect x="270" y="171" width="10" height="9" fill="#63635a"/><rect x="280" y="162" width="10" height="9" fill="#414141"/><rect x="280" y="171" width="10" height="9" fill="#414141"/><rect x="290" y="162" width="10" height="9" fill="#63635a"/><rect x="290" y="171" width="10" height="9" fill="#63635a"/><rect x="300" y="162" width="10" height="9" fill="#63635a"/><rect x="300" y="171" width="10" height="9" fill="#63635a"/><rect x="310" y="162" width="10" height="9" fill="#63635a"/><rect x="310" y="171" width="10" height="9" fill="#63635a"/><rect x="320" y="162" width="10" height="9" fill="#7b7b73"/><rect x="320" y="171" width="10" height="9" fill="#000000"/><rect x="330" y="162" width="10" height="9" fill="#7b7b73"/><rect x="330" y="171" width="10" height="9" fill="#000000"/><rect x="340" y="162" width="10" height="9" fill="#000000"/><rect x="60" y="180" width="10" height="9" fill="#000000"/><rect x="90" y="180" width="10" height="9" fill="#3a5a9c"/><rect x="100" y="180" width="10" height="9" fill="#3a5a9c"/><rect x="150" y="180" width="10" height="9" fill="#000000"/><rect x="160" y="180" width="10" height="9" fill="#63635a"/><rect x="160" y="189" width="10" height="9" fill="#000000"/><rect x="170" y="180" width="10" height="9" fill="#63635a"/><rect x="170" y="189" width="10" height="9" fill="#000000"/><rect x="180" y="180" width="10" height="9" fill="#63635a"/><rect x="180" y="189" width="10" height="9" fill="#000000"/><rect x="190" y="180" width="10" height="9" fill="#414141"/><rect x="190" y="189" width="10" height="9" fill="#000000"/><rect x="200" y="180" width="10" height="9" fill="#414141"/><rect x="200" y="189" width="10" height="9" fill="#73b5de"/><rect x="210" y="180" width="10" height="9" fill="#ffffff"/><rect x="210" y="189" width="10" height="9" fill="#414141"/><rect x="220" y="180" width="10" height="9" fill="#414141"/><rect x="220" y="189" width="10" height="9" fill="#7b7b73"/><rect x="230" y="180" width="10" height="9" fill="#7b7b73"/><rect x="230" y="189" width="10" height="9" fill="#7b7b73"/><rect x="240" y="180" width="10" height="9" fill="#7b7b73"/><rect x="240" y="189" width="10" height="9" fill="#7b7b73"/><rect x="250" y="180" width="10" height="9" fill="#7b7b73"/><rect x="250" y="189" width="10" height="9" fill="#63635a"/><rect x="260" y="180" width="10" height="9" fill="#63635a"/><rect x="260" y="189" width="10" height="9" fill="#63635a"/><rect x="270" y="180" width="10" height="9" fill="#63635a"/><rect x="270" y="189" width="10" height="9" fill="#000000"/><rect x="280" y="180" width="10" height="9" fill="#000000"/><rect x="290" y="180" width="10" height="9" fill="#000000"/><rect x="300" y="180" width="10" height="9" fill="#000000"/><rect x="310" y="180" width="10" height="9" fill="#000000"/><rect x="200" y="198" width="10" height="9" fill="#000000"/><rect x="210" y="198" width="10" height="9" fill="#000000"/><rect x="220" y="198" width="10" height="9" fill="#63635a"/><rect x="220" y="207" width="10" height="9" fill="#000000"/><rect x="230" y="198" width="10" height="9" fill="#63635a"/><rect x="230" y="207" width="10" height="9" fill="#ffffff"/><rect x="240" y="198" width="10" height="9" fill="#63635a"/><rect x="240" y="207" width="10" height="9" fill="#414141"/><rect x="250" y="198" width="10" height="9" fill="#63635a"/><rect x="250" y="207" width="10" height="9" fill="#bdbdbd"/><rect x="260" y="198" width="10" height="9" fill="#63635a"/><rect x="260" y="207" width="10" height="9" fill="#000000"/><rect x="270" y="198" width="10" height="9" fill="#000000"/><rect x="230" y="216" width="10" height="9" fill="#000000"/><rect x="240" y="216" width="10" height="9" fill="#000000"/><rect x="250" y="216" width="10" height="9" fill="#000000"/></g>
  <g font-family="ui-monospace, SFMono-Regular, Menlo, Consolas, monospace">
    <text x="365" y="137" fill="#f8fafc" font-size="46" font-weight="800">POKÉDEX</text>
    <text x="365" y="187" fill="#3a5a9c" font-size="46" font-weight="800">CLI</text>
    <text x="368" y="226" fill="#cbd5e1" font-size="15">catch · train · evolve</text>
  </g>
</svg>
